<svg height="600" version="1.1" width="800" xmlns="http://www.w3.org/2000/svg" preserveAspectRatio="xMidYMid meet" viewBox="0 0 600 442" xmlns:xlink="http://www.w3.org/1999/xlink"><desc>Created with Snap</desc><defs/><g id="root" contentwidth="435.4" contentheight="295.75">
          <rect class="background" height="2000%" width="2000%" y="-1000%" x="-1000%" style="" fill="#000000"/>
          <g class="content" id="content" transform="matrix(1,0,0,1,78,336.075)">
            <g class="icon" transform="matrix(1,0,0,1,0,8)" style="mask: url(#mask);">
            <svg height="201.25" version="1.1" width="201.25" xmlns="http://www.w3.org/2000/svg" x="121.37499999999999" y="-270.95"><desc>Created with Snap</desc><defs/><svg xmlns="http://www.w3.org/2000/svg" xmlns:xlink="http://www.w3.org/1999/xlink" preserveAspectRatio="xMidYMid meet" viewBox="0 0 512 512">
<g fill="#f15a24">
<svg class="icon" preserveAspectRatio="xMidYMid meet" version="1.0" viewBox="0 0 512 512">
<g>
<svg height="512" preserveAspectRatio="xMidYMid meet" width="512">
<svg version="1.1" viewBox="0 0 726 690">
<path d="M0 0 C0.8 -0 1.7 -0 2.6 -0 C5.4 0 8.2 0 10.9 0 C12.9 0 14.8 0 16.8 0 C21.9 0 27 0 32.1 0 C37.3 0.1 42.5 0.1 47.7 0.1 C57.9 0.1 68.1 0.1 78.3 0.1 C78.3 1.3 78.3 1.3 78.3 2.5 C78.4 10 78.4 17.5 78.5 25 C78.6 28.9 78.6 32.7 78.6 36.6 C78.6 40.3 78.7 44 78.7 47.8 C78.7 49.2 78.7 50.6 78.7 52 C78.7 63.6 80.2 72.7 88.4 81.4 C96.9 88.9 106.8 90.6 117.9 90.4 C127.8 89.5 136.4 86.3 143.3 79.1 C159.9 58.5 151 18.4 151.3 0.1 C239.1 0.1 326.9 0.1 417.3 0.1 C417.7 21.2 418 42.4 418.3 64.1 C421.6 73.8 425 81.1 434.1 86.1 C445.2 91.1 457.2 91.8 468.8 88.1 C477.9 84.5 483.7 78.6 487.9 69.9 C490.2 63.5 489.8 56.8 489.8 50.1 C489.9 48.7 489.9 47.2 489.9 45.8 C489.9 42 490 38.2 490 34.4 C490 30.6 490.1 26.7 490.1 22.8 C490.2 15.3 490.3 7.7 490.3 0.1 C501.4 0 512.5 -0.1 523.5 -0.1 C528.7 -0.1 533.8 -0.1 539 -0.2 C543.9 -0.2 548.9 -0.3 553.9 -0.3 C555.8 -0.3 557.6 -0.3 559.5 -0.3 C574.3 -0.5 588.4 0.7 601.6 7.8 C602.3 8.1 603 8.5 603.6 8.8 C621.5 18.5 633.7 34.5 640.3 53.5 C640.7 54.7 641 55.9 641.3 57.1 C641.5 57.7 641.7 58.3 641.9 59 C644 68 643.6 77.3 643.6 86.5 C643.6 88.5 643.6 90.5 643.6 92.5 C643.6 97.9 643.6 103.3 643.6 108.8 C643.6 114.6 643.6 120.5 643.6 126.4 C643.7 137.9 643.7 149.4 643.7 160.9 C643.7 170.2 643.7 179.6 643.7 189 C643.7 191.6 643.7 194.3 643.7 197 C643.7 198 643.7 198 643.7 199.1 C643.7 217.9 643.7 236.7 643.7 255.6 C643.7 256.3 643.7 257 643.7 257.7 C643.7 261.3 643.7 264.9 643.7 268.5 C643.7 269.6 643.7 269.6 643.7 270.7 C643.7 272.1 643.7 273.6 643.7 275 C643.7 297.5 643.7 320 643.7 342.4 C643.8 367.7 643.8 393 643.8 418.2 C643.8 420.9 643.8 423.6 643.8 426.3 C643.8 427.3 643.8 427.3 643.8 428.4 C643.8 438.4 643.8 448.4 643.8 458.4 C643.8 469.7 643.8 481.1 643.8 492.5 C643.8 498.3 643.8 504.1 643.8 509.9 C643.9 515.2 643.8 520.6 643.8 525.9 C643.8 527.8 643.8 529.7 643.8 531.6 C643.9 546.4 642.8 561.3 635.6 574.6 C635.2 575.2 634.9 575.9 634.5 576.5 C631.4 582.3 627.7 587.3 623.3 592.1 C622.8 592.7 622.3 593.3 621.8 594 C610.4 606.5 591.7 615.1 574.9 616.3 C567.8 616.6 560.7 616.5 553.6 616.5 C551.2 616.5 548.8 616.5 546.4 616.5 C541.1 616.5 535.9 616.5 530.7 616.5 C522.9 616.5 515.1 616.5 507.3 616.5 C493.4 616.6 479.4 616.6 465.5 616.6 C453.3 616.5 441.1 616.5 428.9 616.6 C427.3 616.6 425.7 616.6 424 616.6 C421.6 616.6 419.1 616.6 416.6 616.6 C393.7 616.6 370.8 616.6 347.9 616.6 C347 616.6 346.2 616.6 345.3 616.6 C338.3 616.6 331.2 616.6 324.2 616.6 C296.9 616.5 269.5 616.6 242.2 616.6 C211.4 616.6 180.7 616.6 150 616.6 C146.7 616.6 143.4 616.6 140.1 616.6 C139.3 616.6 138.5 616.6 137.7 616.6 C125.5 616.6 113.3 616.6 101.2 616.6 C87.3 616.6 73.5 616.6 59.6 616.6 C51.9 616.6 44.1 616.6 36.4 616.6 C30.6 616.6 24.8 616.6 19 616.6 C16.7 616.6 14.3 616.6 12 616.6 C-3.8 616.7 -18.8 616 -33 608.4 C-33.7 608 -34.4 607.7 -35 607.3 C-40.8 604.2 -45.8 600.5 -50.7 596.1 C-51.3 595.6 -51.9 595.1 -52.5 594.5 C-65.4 582.8 -73.5 564.1 -74.8 546.9 C-75.1 541 -75.1 535.1 -75.1 529.2 C-75.1 527.3 -75.1 525.3 -75.1 523.3 C-75.1 517.9 -75.1 512.4 -75.1 507 C-75.1 501.1 -75.1 495.2 -75.1 489.4 C-75.1 477.9 -75.1 466.4 -75.1 454.9 C-75.1 445.6 -75.1 436.2 -75.1 426.9 C-75.1 425.6 -75.1 424.2 -75.1 422.9 C-75.1 420.8 -75.1 418.8 -75.1 416.8 C-75.1 398 -75.1 379.1 -75.1 360.3 C-75.1 359.6 -75.1 358.9 -75.1 358.2 C-75.1 352.4 -75.1 346.6 -75.1 340.9 C-75.1 318.4 -75.1 296 -75.1 273.6 C-75.2 248.3 -75.2 223.1 -75.2 197.8 C-75.2 195.1 -75.2 192.4 -75.2 189.7 C-75.2 189.1 -75.2 188.4 -75.2 187.7 C-75.2 177.7 -75.2 167.7 -75.2 157.7 C-75.2 146.4 -75.2 135 -75.2 123.6 C-75.2 117.8 -75.2 112 -75.2 106.2 C-75.2 100.9 -75.2 95.6 -75.2 90.3 C-75.2 88.4 -75.2 86.5 -75.2 84.6 C-75.3 69.9 -74.1 54.9 -67 41.7 C-66.5 40.8 -66.5 40.8 -65.9 39.8 C-62.6 33.6 -58.5 28.2 -53.7 23.1 C-52.9 22.3 -52.2 21.6 -51.4 20.8 C-37.6 7.3 -19.2 -0.1 0 0 Z M-27.7 181.1 C-27.7 239.5 -27.8 297.8 -27.9 357.9 C-28 376.4 -28 394.8 -28 413.8 C-28 430.3 -28 430.3 -28 446.8 C-28.1 454.1 -28.1 461.5 -28.1 468.9 C-28.1 477.4 -28.1 485.8 -28.1 494.3 C-28.1 498.7 -28.1 503 -28.1 507.4 C-28.2 511.3 -28.2 515.2 -28.2 519.1 C-28.1 520.6 -28.2 522 -28.2 523.4 C-28.3 535.5 -26.3 546 -17.8 555.1 C-5.9 566.6 7.6 565.7 23.1 565.6 C25.5 565.6 27.8 565.6 30.2 565.6 C35.9 565.7 41.7 565.7 47.4 565.6 C54.3 565.6 61.2 565.6 68.1 565.6 C81.7 565.7 95.2 565.7 108.7 565.7 C120.5 565.6 132.4 565.6 144.2 565.6 C145.4 565.6 145.4 565.6 146.6 565.6 C149.8 565.7 152.9 565.7 156.1 565.7 C186 565.7 215.9 565.7 245.8 565.6 C272.3 565.6 298.9 565.6 325.4 565.6 C355.3 565.7 385.1 565.7 414.9 565.7 C418.1 565.7 421.3 565.7 424.5 565.6 C425.7 565.6 425.7 565.6 426.9 565.6 C438.7 565.6 450.5 565.6 462.3 565.7 C475.8 565.7 489.2 565.7 502.6 565.6 C509.5 565.6 516.4 565.6 523.2 565.6 C529.5 565.7 535.8 565.6 542.1 565.6 C544.3 565.6 546.6 565.6 548.9 565.6 C563.8 565.7 575.8 565.6 587.1 554.8 C593.2 547.5 596.5 539.4 596.5 530.1 C596.5 528.8 596.5 527.6 596.5 526.3 C596.5 524.9 596.5 523.5 596.5 522.2 C596.5 520.7 596.5 519.2 596.5 517.8 C596.5 513.7 596.5 509.7 596.4 505.7 C596.4 501.2 596.4 496.8 596.4 492.4 C596.4 483.8 596.4 475.3 596.4 466.7 C596.4 456.8 596.4 446.8 596.4 436.9 C596.4 410.7 596.4 384.6 596.4 358.4 C596.4 299.9 596.4 241.4 596.3 181.1 C390.4 181.1 184.5 181.1 -27.7 181.1 Z " transform="translate(78.66748046875,69.886474609375)"/>
<path d="M0 0 C0.9 -0 1.8 -0 2.7 -0 C5.7 -0 8.6 -0 11.6 -0 C13.6 -0.1 15.7 -0.1 17.7 -0.1 C22 -0.1 26.3 -0.1 30.6 -0.1 C36.1 -0.1 41.6 -0.1 47.1 -0.1 C51.4 -0.2 55.6 -0.2 59.8 -0.2 C61.8 -0.2 63.9 -0.2 65.9 -0.2 C68.7 -0.2 71.6 -0.2 74.4 -0.2 C75.7 -0.2 75.7 -0.2 77 -0.2 C80.7 -0.2 82.8 -0.1 85.8 2.2 C88.7 6.3 88.4 9.8 88.5 14.7 C88.5 15.6 88.5 16.4 88.5 17.3 C88.5 20.2 88.5 23.1 88.5 26 C88.5 27 88.5 28 88.5 29 C88.5 34.2 88.6 39.4 88.6 44.6 C88.6 50 88.6 55.4 88.7 60.8 C88.7 64.9 88.7 69.1 88.7 73.2 C88.7 75.2 88.7 77.2 88.7 79.2 C88.8 81.9 88.8 84.7 88.7 87.5 C88.8 88.3 88.8 89.1 88.8 90 C88.8 94 88.6 95.8 86.4 99.3 C82.5 103 78.9 102.5 73.9 102.5 C72.6 102.5 72.6 102.5 71.2 102.5 C68.3 102.5 65.5 102.5 62.6 102.5 C61.6 102.5 60.6 102.5 59.6 102.5 C54.4 102.6 49.2 102.6 43.9 102.6 C38.6 102.6 33.2 102.6 27.8 102.7 C23.6 102.7 19.5 102.7 15.4 102.7 C13.4 102.7 11.4 102.7 9.4 102.7 C6.6 102.8 3.9 102.8 1.1 102.8 C0.3 102.8 -0.6 102.8 -1.4 102.8 C-5.4 102.8 -7.3 102.6 -10.7 100.4 C-14.4 96.5 -13.9 92.9 -13.9 87.9 C-13.9 87 -13.9 86.1 -13.9 85.2 C-13.9 82.3 -13.9 79.4 -13.9 76.5 C-13.9 74.5 -13.9 72.5 -13.9 70.5 C-13.9 66.3 -13.9 62.1 -13.9 57.9 C-13.9 52.5 -13.9 47.1 -13.9 41.7 C-13.9 37.6 -14 33.4 -14 29.3 C-14 27.3 -14 25.3 -14 23.3 C-14 20.5 -14 17.8 -14 15 C-14 14.2 -14 13.3 -14 12.5 C-13.9 5.3 -13.9 5.3 -11.7 2.3 C-7.8 -0.3 -4.5 -0 0 0 Z " transform="translate(499.722412109375,462.70947265625)"/>
<path d="M0 0 C0.9 -0 1.8 -0 2.7 -0 C5.7 -0 8.6 -0 11.6 -0 C13.6 -0.1 15.7 -0.1 17.7 -0.1 C22 -0.1 26.3 -0.1 30.6 -0.1 C36.1 -0.1 41.6 -0.1 47.1 -0.1 C51.4 -0.2 55.6 -0.2 59.8 -0.2 C61.8 -0.2 63.9 -0.2 65.9 -0.2 C68.7 -0.2 71.6 -0.2 74.4 -0.2 C75.7 -0.2 75.7 -0.2 77 -0.2 C80.7 -0.2 82.8 -0.1 85.8 2.2 C88.7 6.3 88.4 9.8 88.5 14.7 C88.5 15.6 88.5 16.4 88.5 17.3 C88.5 20.2 88.5 23.1 88.5 26 C88.5 27 88.5 28 88.5 29 C88.5 34.2 88.6 39.4 88.6 44.6 C88.6 50 88.6 55.4 88.7 60.8 C88.7 64.9 88.7 69.1 88.7 73.2 C88.7 75.2 88.7 77.2 88.7 79.2 C88.8 81.9 88.8 84.7 88.7 87.5 C88.8 88.3 88.8 89.1 88.8 90 C88.8 94 88.6 95.8 86.4 99.3 C82.5 103 78.9 102.5 73.9 102.5 C72.6 102.5 72.6 102.5 71.2 102.5 C68.3 102.5 65.5 102.5 62.6 102.5 C61.6 102.5 60.6 102.5 59.6 102.5 C54.4 102.6 49.2 102.6 43.9 102.6 C38.6 102.6 33.2 102.6 27.8 102.7 C23.6 102.7 19.5 102.7 15.4 102.7 C13.4 102.7 11.4 102.7 9.4 102.7 C6.6 102.8 3.9 102.8 1.1 102.8 C0.3 102.8 -0.6 102.8 -1.4 102.8 C-5.4 102.8 -7.3 102.6 -10.7 100.4 C-14.4 96.5 -13.9 92.9 -13.9 87.9 C-13.9 87 -13.9 86.1 -13.9 85.2 C-13.9 82.3 -13.9 79.4 -13.9 76.5 C-13.9 74.5 -13.9 72.5 -13.9 70.5 C-13.9 66.3 -13.9 62.1 -13.9 57.9 C-13.9 52.5 -13.9 47.1 -13.9 41.7 C-13.9 37.6 -14 33.4 -14 29.3 C-14 27.3 -14 25.3 -14 23.3 C-14 20.5 -14 17.8 -14 15 C-14 14.2 -14 13.3 -14 12.5 C-13.9 5.3 -13.9 5.3 -11.7 2.3 C-7.8 -0.3 -4.5 -0 0 0 Z " transform="translate(325.722412109375,462.70947265625)"/>
<path d="M0 0 C0.9 -0 1.8 -0 2.7 -0 C5.7 -0 8.6 -0 11.6 -0 C13.6 -0.1 15.7 -0.1 17.7 -0.1 C22 -0.1 26.3 -0.1 30.6 -0.1 C36.1 -0.1 41.6 -0.1 47.1 -0.1 C51.4 -0.2 55.6 -0.2 59.8 -0.2 C61.8 -0.2 63.9 -0.2 65.9 -0.2 C68.7 -0.2 71.6 -0.2 74.4 -0.2 C75.7 -0.2 75.7 -0.2 77 -0.2 C80.7 -0.2 82.8 -0.1 85.8 2.2 C88.7 6.3 88.4 9.8 88.5 14.7 C88.5 15.6 88.5 16.4 88.5 17.3 C88.5 20.2 88.5 23.1 88.5 26 C88.5 27 88.5 28 88.5 29 C88.5 34.2 88.6 39.4 88.6 44.6 C88.6 50 88.6 55.4 88.7 60.8 C88.7 64.9 88.7 69.1 88.7 73.2 C88.7 75.2 88.7 77.2 88.7 79.2 C88.8 81.9 88.8 84.7 88.7 87.5 C88.8 88.3 88.8 89.1 88.8 90 C88.8 94 88.6 95.8 86.4 99.3 C82.5 103 78.9 102.5 73.9 102.5 C72.6 102.5 72.6 102.5 71.2 102.5 C68.3 102.5 65.5 102.5 62.6 102.5 C61.6 102.5 60.6 102.5 59.6 102.5 C54.4 102.6 49.2 102.6 43.9 102.6 C38.6 102.6 33.2 102.6 27.8 102.7 C23.6 102.7 19.5 102.7 15.4 102.7 C13.4 102.7 11.4 102.7 9.4 102.7 C6.6 102.8 3.9 102.8 1.1 102.8 C0.3 102.8 -0.6 102.8 -1.4 102.8 C-5.4 102.8 -7.3 102.6 -10.7 100.4 C-14.4 96.5 -13.9 92.9 -13.9 87.9 C-13.9 87 -13.9 86.1 -13.9 85.2 C-13.9 82.3 -13.9 79.4 -13.9 76.5 C-13.9 74.5 -13.9 72.5 -13.9 70.5 C-13.9 66.3 -13.9 62.1 -13.9 57.9 C-13.9 52.5 -13.9 47.1 -13.9 41.7 C-13.9 37.6 -14 33.4 -14 29.3 C-14 27.3 -14 25.3 -14 23.3 C-14 20.5 -14 17.8 -14 15 C-14 14.2 -14 13.3 -14 12.5 C-13.9 5.3 -13.9 5.3 -11.7 2.3 C-7.8 -0.3 -4.5 -0 0 0 Z " transform="translate(151.722412109375,462.70947265625)"/>
<path d="M0 0 C1.3 -0 1.3 -0 2.6 -0 C5.5 -0 8.4 -0.1 11.3 -0.1 C12.3 -0.1 13.3 -0.1 14.3 -0.1 C19.5 -0.1 24.7 -0.1 29.9 -0.1 C35.3 -0.1 40.7 -0.2 46.1 -0.2 C50.2 -0.2 54.4 -0.2 58.5 -0.2 C60.5 -0.2 62.5 -0.3 64.5 -0.3 C67.2 -0.3 70 -0.3 72.8 -0.3 C73.6 -0.3 74.4 -0.3 75.3 -0.3 C79.3 -0.3 81.1 -0.1 84.6 2.1 C88.3 5.9 87.8 9.5 87.8 14.6 C87.8 15.5 87.8 16.3 87.8 17.2 C87.8 20.1 87.8 23 87.8 25.9 C87.8 26.9 87.8 27.9 87.8 28.9 C87.9 34.1 87.9 39.3 87.9 44.5 C87.9 49.9 87.9 55.3 88 60.7 C88 64.8 88 68.9 88 73.1 C88 75.1 88 77.1 88 79 C88.1 81.8 88.1 84.6 88.1 87.4 C88.1 88.2 88.1 89 88.1 89.9 C88.1 93.8 87.9 95.7 85.7 99.2 C81.8 102.9 78.3 102.3 73.2 102.4 C71.9 102.4 71.9 102.4 70.5 102.4 C67.7 102.4 64.8 102.4 61.9 102.4 C60.9 102.4 59.9 102.4 58.9 102.4 C53.7 102.4 48.5 102.5 43.3 102.5 C37.9 102.5 32.5 102.5 27.1 102.6 C23 102.6 18.8 102.6 14.7 102.6 C12.7 102.6 10.7 102.6 8.7 102.6 C5.9 102.7 3.2 102.7 0.4 102.6 C-0.4 102.7 -1.3 102.7 -2.1 102.7 C-6.1 102.6 -8 102.5 -11.4 100.3 C-15.1 96.4 -14.6 92.8 -14.6 87.8 C-14.6 86.9 -14.6 86 -14.6 85.1 C-14.6 82.2 -14.6 79.4 -14.6 76.5 C-14.7 75.5 -14.7 74.5 -14.7 73.5 C-14.7 68.3 -14.7 63.1 -14.7 57.8 C-14.7 52.5 -14.8 47.1 -14.8 41.7 C-14.8 37.5 -14.8 33.4 -14.8 29.3 C-14.8 27.3 -14.8 25.3 -14.9 23.3 C-14.9 20.5 -14.9 17.8 -14.9 15 C-14.9 14.2 -14.9 13.3 -14.9 12.5 C-14.9 8.5 -14.7 6.6 -12.5 3.2 C-8.7 -0.5 -5.1 0 0 0 Z " transform="translate(500.409423828125,320.822998046875)"/>
<path d="M0 0 C1.3 -0 1.3 -0 2.6 -0 C5.5 -0 8.4 -0.1 11.3 -0.1 C12.3 -0.1 13.3 -0.1 14.3 -0.1 C19.5 -0.1 24.7 -0.1 29.9 -0.1 C35.3 -0.1 40.7 -0.2 46.1 -0.2 C50.2 -0.2 54.4 -0.2 58.5 -0.2 C60.5 -0.2 62.5 -0.3 64.5 -0.3 C67.2 -0.3 70 -0.3 72.8 -0.3 C73.6 -0.3 74.4 -0.3 75.3 -0.3 C79.3 -0.3 81.1 -0.1 84.6 2.1 C88.3 5.9 87.8 9.5 87.8 14.6 C87.8 15.5 87.8 16.3 87.8 17.2 C87.8 20.1 87.8 23 87.8 25.9 C87.8 26.9 87.8 27.9 87.8 28.9 C87.9 34.1 87.9 39.3 87.9 44.5 C87.9 49.9 87.9 55.3 88 60.7 C88 64.8 88 68.9 88 73.1 C88 75.1 88 77.1 88 79 C88.1 81.8 88.1 84.6 88.1 87.4 C88.1 88.2 88.1 89 88.1 89.9 C88.1 93.8 87.9 95.7 85.7 99.2 C81.8 102.9 78.3 102.3 73.2 102.4 C71.9 102.4 71.9 102.4 70.5 102.4 C67.7 102.4 64.8 102.4 61.9 102.4 C60.9 102.4 59.9 102.4 58.9 102.4 C53.7 102.4 48.5 102.5 43.3 102.5 C37.9 102.5 32.5 102.5 27.1 102.6 C23 102.6 18.8 102.6 14.7 102.6 C12.7 102.6 10.7 102.6 8.7 102.6 C5.9 102.7 3.2 102.7 0.4 102.6 C-0.4 102.7 -1.3 102.7 -2.1 102.7 C-6.1 102.6 -8 102.5 -11.4 100.3 C-15.1 96.4 -14.6 92.8 -14.6 87.8 C-14.6 86.9 -14.6 86 -14.6 85.1 C-14.6 82.2 -14.6 79.4 -14.6 76.5 C-14.7 75.5 -14.7 74.5 -14.7 73.5 C-14.7 68.3 -14.7 63.1 -14.7 57.8 C-14.7 52.5 -14.8 47.1 -14.8 41.7 C-14.8 37.5 -14.8 33.4 -14.8 29.3 C-14.8 27.3 -14.8 25.3 -14.9 23.3 C-14.9 20.5 -14.9 17.8 -14.9 15 C-14.9 14.2 -14.9 13.3 -14.9 12.5 C-14.9 8.5 -14.7 6.6 -12.5 3.2 C-8.7 -0.5 -5.1 0 0 0 Z " transform="translate(326.409423828125,320.822998046875)"/>
<path d="M0 0 C1.3 -0 1.3 -0 2.6 -0 C5.5 -0 8.4 -0.1 11.3 -0.1 C12.3 -0.1 13.3 -0.1 14.3 -0.1 C19.5 -0.1 24.7 -0.1 29.9 -0.1 C35.3 -0.1 40.7 -0.2 46.1 -0.2 C50.2 -0.2 54.4 -0.2 58.5 -0.2 C60.5 -0.2 62.5 -0.3 64.5 -0.3 C67.2 -0.3 70 -0.3 72.8 -0.3 C73.6 -0.3 74.4 -0.3 75.3 -0.3 C79.3 -0.3 81.1 -0.1 84.6 2.1 C88.3 5.9 87.8 9.5 87.8 14.6 C87.8 15.5 87.8 16.3 87.8 17.2 C87.8 20.1 87.8 23 87.8 25.9 C87.8 26.9 87.8 27.9 87.8 28.9 C87.9 34.1 87.9 39.3 87.9 44.5 C87.9 49.9 87.9 55.3 88 60.7 C88 64.8 88 68.9 88 73.1 C88 75.1 88 77.1 88 79 C88.1 81.8 88.1 84.6 88.1 87.4 C88.1 88.2 88.1 89 88.1 89.9 C88.1 93.8 87.9 95.7 85.7 99.2 C81.8 102.9 78.3 102.3 73.2 102.4 C71.9 102.4 71.9 102.4 70.5 102.4 C67.7 102.4 64.8 102.4 61.9 102.4 C60.9 102.4 59.9 102.4 58.9 102.4 C53.7 102.4 48.5 102.5 43.3 102.5 C37.9 102.5 32.5 102.5 27.1 102.6 C23 102.6 18.8 102.6 14.7 102.6 C12.7 102.6 10.7 102.6 8.7 102.6 C5.9 102.7 3.2 102.7 0.4 102.6 C-0.4 102.7 -1.3 102.7 -2.1 102.7 C-6.1 102.6 -8 102.5 -11.4 100.3 C-15.1 96.4 -14.6 92.8 -14.6 87.8 C-14.6 86.9 -14.6 86 -14.6 85.1 C-14.6 82.2 -14.6 79.4 -14.6 76.5 C-14.7 75.5 -14.7 74.5 -14.7 73.5 C-14.7 68.3 -14.7 63.1 -14.7 57.8 C-14.7 52.5 -14.8 47.1 -14.8 41.7 C-14.8 37.5 -14.8 33.4 -14.8 29.3 C-14.8 27.3 -14.8 25.3 -14.9 23.3 C-14.9 20.5 -14.9 17.8 -14.9 15 C-14.9 14.2 -14.9 13.3 -14.9 12.5 C-14.9 8.5 -14.7 6.6 -12.5 3.2 C-8.7 -0.5 -5.1 0 0 0 Z " transform="translate(152.409423828125,320.822998046875)"/>
<path d="M0 0 C6.2 4.9 10 10 12 17.6 C12.5 21.1 12.5 24.6 12.5 28.2 C12.5 29.2 12.5 30.2 12.5 31.3 C12.5 34.7 12.5 38.1 12.5 41.4 C12.5 43.8 12.5 46.2 12.5 48.5 C12.5 53.5 12.5 58.4 12.5 63.4 C12.5 69.7 12.5 76 12.5 82.4 C12.5 87.2 12.5 92.1 12.5 97 C12.5 99.3 12.5 101.7 12.6 104 C12.6 107.3 12.6 110.5 12.5 113.8 C12.6 114.7 12.6 115.7 12.6 116.7 C12.5 124.9 10.5 132.2 4.9 138.5 C-3.2 145.6 -11.2 146.4 -21.6 146 C-30.8 145.3 -36.2 142.1 -42.3 135.3 C-46.6 128.3 -47.4 121.2 -47.3 113.1 C-47.3 112.1 -47.4 111.1 -47.4 110 C-47.4 106.7 -47.4 103.4 -47.4 100.1 C-47.4 97.8 -47.4 95.4 -47.4 93.1 C-47.4 88.3 -47.4 83.4 -47.3 78.6 C-47.3 72.4 -47.3 66.2 -47.4 60 C-47.4 55.2 -47.4 50.4 -47.4 45.6 C-47.4 43.3 -47.4 41 -47.4 38.7 C-47.4 35.5 -47.4 32.3 -47.3 29.1 C-47.3 28.2 -47.4 27.3 -47.4 26.3 C-47.3 16.7 -44.9 9.5 -38.2 2.6 C-28.6 -5.7 -10.8 -6.6 0 0 Z " transform="translate(549.953125,7.38671875)"/>
<path d="M0 0 C7.8 5.3 11.1 11.5 13.1 20.4 C13.5 24 13.5 27.4 13.5 31 C13.5 32 13.5 33 13.5 34 C13.5 37.3 13.5 40.6 13.5 43.9 C13.5 46.2 13.5 48.5 13.5 50.7 C13.5 55.5 13.5 60.3 13.5 65.1 C13.5 71.3 13.5 77.4 13.5 83.5 C13.5 88.3 13.5 93 13.5 97.8 C13.5 100 13.5 102.3 13.5 104.5 C13.5 107.7 13.5 110.9 13.5 114 C13.5 115.4 13.5 115.4 13.5 116.8 C13.4 126.4 11.1 133.6 4.4 140.5 C-3.2 147 -12 147.3 -21.6 146.9 C-30.2 146.2 -35.8 142.2 -41.4 135.8 C-45.7 129 -46.3 122.8 -46.3 114.9 C-46.3 113.3 -46.3 113.3 -46.3 111.8 C-46.3 108.4 -46.3 105 -46.3 101.6 C-46.3 99.2 -46.3 96.9 -46.3 94.5 C-46.3 89.6 -46.3 84.6 -46.3 79.7 C-46.3 73.4 -46.3 67 -46.4 60.7 C-46.4 55.8 -46.4 50.9 -46.4 46.1 C-46.4 43.7 -46.4 41.4 -46.4 39.1 C-46.4 35.8 -46.4 32.5 -46.4 29.3 C-46.4 27.9 -46.4 27.9 -46.4 26.4 C-46.3 18.1 -44.3 10.8 -38.7 4.6 C-28.7 -4.3 -12.1 -6 0 0 Z " transform="translate(209.88671875,6.55078125)"/>
</svg>
</svg>
</g>
</svg>
</g>
</svg></svg></g>
            <g id="icon_name_and_slogan_gap">
            </g>
            <g class="name_and_slogan" id="name_and_slogan_id">
              <g class="name"><g id="nameDefaultGroup"><path d="M55.4 -29.4Q55.4 -22.6 55.1 -16.6Q54.8 -10.6 54.5 -8.4L54.5 -8.4Q54.2 -7 53.5 -5.9Q52.8 -4.8 52 -4.3L52 -4.3Q50.8 -3.6 48.8 -3.1L48.8 -3.1Q46 -2.2 41.9 -1.7Q37.7 -1.3 33.6 -1.3L33.6 -1.3Q28.7 -1.3 26.1 -1.8L26.1 -1.8Q24 -2.3 22.6 -3.4L22.6 -3.4Q22.2 -2 20.2 -1.4Q18.2 -0.8 15.5 -0.8L15.5 -0.8Q12.3 -0.8 9.9 -1.3L9.9 -1.3Q8.5 -1.6 7.2 -3.5Q5.8 -5.4 5.7 -7.7L5.7 -7.7Q5.3 -14.4 5.1 -20.3L5.1 -20.3L4.8 -28.5L5.2 -28.8L6.7 -27.6Q6.8 -27.8 7 -28.1Q7.2 -28.4 7.2 -28.5L7.2 -28.5L6.6 -35.9Q6.5 -37.1 6.5 -39.5L6.5 -39.5L6.5 -45.7Q5.5 -44.9 5.5 -41.7L5.5 -41.7Q5.5 -39.1 5.5 -37.9Q5.5 -36.8 5.5 -36.2L5.5 -36.2Q5.5 -35.8 5.6 -34.4L5.6 -34.4L4.8 -34.4Q4.3 -35.3 4.3 -35.6L4.3 -35.6Q4.3 -37.7 4.3 -39.6Q4.4 -41.5 4.5 -42.9L4.5 -42.9Q4.6 -46 4.6 -47.1L4.6 -47.1Q4.7 -49.9 5.4 -51.5Q6.2 -53 7.9 -53.3L7.9 -53.3Q10.4 -53.7 13.3 -53.7L13.3 -53.7Q18 -53.7 21.2 -52.6L21.2 -52.6Q22.9 -52 23.6 -50.7Q24.4 -49.5 24.4 -47.4L24.4 -47.4Q24.4 -26.9 23.6 -13.7L23.6 -13.7Q24 -13.9 24.7 -13.8L24.7 -13.8Q27.3 -13.2 30.5 -13.2L30.5 -13.2Q32.7 -13.2 34.3 -13.5Q36 -13.8 36.6 -14.4L36.6 -14.4Q37.3 -15.2 37.6 -18.1L37.6 -18.1Q37.8 -21 37.8 -24.6L37.8 -24.6Q37.8 -33.7 36.7 -46.6L36.7 -46.6Q36.6 -47.1 36.6 -48L36.6 -48Q36.6 -50.3 37.6 -51.5Q38.6 -52.8 40.8 -53.2L40.8 -53.2Q43.7 -53.9 46.3 -53.9L46.3 -53.9Q49.3 -53.9 51.5 -53Q53.7 -52.2 54.1 -50.3L54.1 -50.3Q55.4 -44.7 55.4 -29.4L55.4 -29.4M93 0.4Q90.5 0.5 89.2 0.5L89.2 0.5Q77 0.5 69.3 -6.2L69.3 -6.2Q67 -8.2 65.4 -11.8Q63.8 -15.3 63.4 -18.9L63.4 -18.9Q63.2 -20.4 63.2 -22.9L63.2 -22.9Q63.2 -29.6 65.8 -40.1L65.8 -40.1Q65.8 -40.2 66.1 -40.3Q66.4 -40.4 66.7 -40.4L66.7 -40.4Q67.6 -40.4 67.4 -39.8L67.4 -39.8Q66 -35.2 65.5 -32Q65 -28.7 65 -24.1L65 -24.1Q65 -21.6 65.1 -20.2L65.1 -20.2Q65.1 -20 65.4 -20L65.4 -20Q65.7 -20 66 -20.2Q66.4 -20.5 66.4 -20.9L66.4 -20.9Q66.4 -31.4 69.1 -41.1L69.1 -41.1Q68.8 -41.8 68.4 -42Q68 -42.2 67.2 -42.2L67.2 -42.2Q71.8 -48.5 77.8 -51.6Q83.8 -54.7 93.1 -54.7L93.1 -54.7Q102.9 -54.7 108.7 -50.5Q114.5 -46.3 116.1 -38.6L116.1 -38.6Q116.2 -37.8 116.2 -37.4L116.2 -37.4Q116.2 -34.9 113.9 -33.5Q111.6 -32.2 108.6 -32.2L108.6 -32.2Q105.6 -32.2 103.2 -33.4Q100.9 -34.7 100.6 -36.9L100.6 -36.9Q100.3 -39.7 98 -41.9Q95.7 -44 92.9 -43.9L92.9 -43.9Q85.8 -43.7 83.5 -37.6L83.5 -37.6Q81.3 -31.8 81.3 -25.9L81.3 -25.9Q81.3 -23.6 81.8 -20.6L81.8 -20.6Q82.9 -15 85.3 -12.3Q87.8 -9.6 91.4 -9.6L91.4 -9.6Q94.9 -9.6 97.6 -11.5Q100.2 -13.4 101.2 -17L101.2 -17Q101.7 -19.2 103.8 -20.4Q105.9 -21.5 108.7 -21.5L108.7 -21.5Q112.2 -21.5 114.7 -19.8Q117.3 -18.2 117.3 -15.3L117.3 -15.3Q117.3 -12.9 115.4 -10.2L115.4 -10.2Q109 -0.9 93 0.4L93 0.4M171.2 -4.4Q171.2 -2.8 170.5 -1.7Q169.8 -0.5 168.5 -0.2L168.5 -0.2Q165.6 0.4 163.2 0.4L163.2 0.4Q160 0.4 156.8 -0.6L156.8 -0.6Q153.8 -1.6 152.4 -3.7L152.4 -3.7Q152 -3 151.3 -2.6Q150.6 -2.1 149.2 -2.1L149.2 -2.1Q147.5 -2 143.1 -1.3L143.1 -1.3Q133.8 -0.3 131.9 -0.3L131.9 -0.3Q130.1 -0.3 129.2 -0.9Q128.4 -1.5 127.7 -3.2L127.7 -3.2Q126.3 -6.5 125 -15.8Q123.7 -25 123.7 -30.2L123.7 -30.2Q123.7 -32.7 124.7 -34.3Q125.7 -35.9 127.1 -36.4L127.1 -36.4Q129.2 -37.2 133.6 -37.6Q138 -38.1 141.6 -38.1L141.6 -38.1Q143.5 -38.1 143.9 -38L143.9 -38Q146.5 -37.7 147.5 -36.6Q148.6 -35.5 148.6 -33.6L148.6 -33.6Q148.6 -31 147.7 -29.5Q146.8 -28 145.5 -28.1L145.5 -28.1Q143.8 -28.3 143.1 -28.3L143.1 -28.3Q140.9 -28.3 139.7 -27.5L139.7 -27.5Q138.6 -27 138.2 -26.2Q137.7 -25.5 137.7 -24.4L137.7 -24.4Q137.7 -23.4 138.1 -20.2Q138.5 -17 138.7 -16L138.7 -16L139.2 -11.1Q141.4 -11.3 146.8 -12.1L146.8 -12.1Q148.4 -12.4 149.5 -12.5L149.5 -12.5Q150.3 -12.5 150.7 -12.4L150.7 -12.4Q150.2 -18.9 150 -23.6L150 -23.6Q149.7 -27 149.6 -30.6Q149.5 -34.3 149.4 -36L149.4 -36Q149.4 -36.7 150.1 -37.4L150.1 -37.4Q150.9 -38.3 153.2 -38.7Q155.5 -39 158 -39L158 -39Q162.6 -39 164.3 -38.2Q166.1 -37.3 166.1 -35.3L166.1 -35.3L166.1 -35.9Q165.9 -35.9 165.7 -30.5Q165.4 -25.1 165.4 -20.2L165.4 -20.2Q165.4 -12.4 166.1 -9.8L166.1 -9.8Q166.3 -9.2 167 -9.2L167 -9.2L167.9 -9.3Q168.1 -9.3 168.7 -9.2L168.7 -9.2Q169.8 -8.9 170.5 -7.5Q171.2 -6.1 171.2 -4.4L171.2 -4.4M194.3 -14.4Q194.3 -8.3 194 -2.5L194 -2.5Q193.8 -1.6 193.2 -1.1L193.2 -1.1Q192.8 -0.9 192.1 -0.7Q191.4 -0.5 191.1 -0.4L191.1 -0.4Q188.7 0.4 184.2 0.4L184.2 0.4Q180.3 0.4 178.4 -0.2L178.4 -0.2Q177.4 -0.5 176.7 -1.8Q176 -3.1 176.2 -5.1L176.2 -5.1Q176.5 -7.4 176.5 -28L176.5 -28Q176.5 -29.3 176.5 -31.8Q176.6 -34.3 176.6 -35.6L176.6 -35.6L176.9 -35.6L178.3 -35.6Q178.1 -34.6 178.1 -31.5L178.1 -31.5Q178.1 -25.7 178.8 -25.3L178.8 -25.3Q179.4 -25.5 179.5 -26.7Q179.6 -28 179.6 -28.1L179.6 -28.1L179.7 -28.2Q179.8 -28.8 179.7 -31.1Q179.6 -33.4 179.6 -34.7L179.6 -34.7Q179.3 -39.8 179.4 -41.2L179.4 -41.2L179.4 -41.3Q179.4 -41.4 179.2 -41.6Q179 -41.8 178.9 -41.9L178.9 -41.9Q178.8 -41.7 178.1 -41.4Q177.4 -41 177.2 -40.8L177.2 -40.8L176.9 -41Q177.1 -42.5 177.3 -45.3Q177.4 -48.1 177.4 -48.5L177.4 -48.5Q177.3 -50.1 178.2 -51.7Q179.1 -53.2 180.3 -53.5L180.3 -53.5Q183.3 -54 185.9 -54L185.9 -54Q191.4 -54 191.8 -52L191.8 -52Q192.8 -47.5 193.6 -36.3Q194.3 -25.1 194.3 -14.4L194.3 -14.4M201.1 -16.1Q201.1 -20.8 202.4 -27.3L202.4 -27.3Q202.4 -27.4 202.6 -27.5Q202.8 -27.6 203.1 -27.6L203.1 -27.6Q203.6 -27.6 203.5 -27.2L203.5 -27.2Q202.8 -23.9 202.6 -22Q202.4 -20.1 202.4 -17.8L202.4 -17.8Q202.4 -15.8 202.6 -13L202.6 -13Q202.6 -12.8 203.1 -12.8L203.1 -12.8Q203.5 -12.8 203.8 -12.9Q204.2 -13.1 204.2 -13.3L204.2 -13.3Q204.1 -14.3 204.1 -16.4L204.1 -16.4Q204.1 -21.8 205.3 -28L205.3 -28Q205 -28.5 204.4 -28.7Q203.8 -29 203.3 -28.9L203.3 -28.9Q206.2 -33.4 210.1 -35.7Q213.9 -38.1 219.5 -38.8L219.5 -38.8Q221.4 -39 223.2 -39L223.2 -39Q229.8 -39 233.9 -36.3L233.9 -36.3Q238.4 -33.1 239.5 -27.4L239.5 -27.4Q239.9 -25 239.9 -23.1L239.9 -23.1Q239.9 -21 239.5 -19.3L239.5 -19.3Q239.2 -18.2 238.3 -17.8Q237.5 -17.5 236.1 -17.4L236.1 -17.4Q232.7 -17.3 227.5 -16.9Q222.3 -16.5 220.1 -16.3L220.1 -16.3Q217.3 -16 217 -19.3L217 -19.3L217 -20.5Q217 -21.9 218 -22.3L218 -22.3Q218.3 -22.4 218.5 -22.5Q218.8 -22.6 218.9 -22.6L218.9 -22.6Q220.4 -22.8 223.2 -23Q225.9 -23.2 227.6 -23.2L227.6 -23.2Q227.7 -24.7 226.8 -26.6L226.8 -26.6Q225.8 -29 222.2 -28.8L222.2 -28.8Q220 -28.8 218.5 -27.7Q217 -26.6 216.1 -24.3L216.1 -24.3Q215.5 -22.9 215.3 -20.7Q215.1 -18.6 215.2 -15.6L215.2 -15.6Q215.3 -12.5 217.2 -11Q219 -9.4 221.5 -9.6L221.5 -9.6Q224.4 -9.7 225.7 -10Q227 -10.3 227.5 -11Q228 -11.6 228 -13.1L228 -13.1Q228 -14 229.6 -14.7Q231.3 -15.3 233.4 -15.3L233.4 -15.3Q236.1 -15.3 237.9 -14.1Q239.6 -12.9 239.4 -10.3L239.4 -10.3Q238.9 -5 234.2 -2.2Q229.4 0.6 223.2 0.9L223.2 0.9Q222.2 1 220.4 1L220.4 1Q211.1 1 206.1 -3.1L206.1 -3.1Q204.4 -4.4 203.1 -6.9Q201.9 -9.3 201.4 -11.9L201.4 -11.9Q201.1 -13.9 201.1 -16.1L201.1 -16.1M293.6 -24.8Q293.6 -19.5 292.7 -13.5Q291.7 -7.5 290.7 -3.5L290.7 -3.5Q290.4 -2.6 289.8 -1.7Q289.2 -0.9 288.5 -0.6L288.5 -0.6Q287 0 285 0L285 0Q283.2 0 280.9 -0.5L280.9 -0.5Q279.2 -0.9 278.4 -1.6Q277.6 -2.2 277.2 -4L277.2 -4Q276.7 -6 276.7 -8.3L276.7 -8.3Q276.7 -9.9 277.3 -14.9L277.3 -14.9Q277.9 -21 278 -24.1L278 -24.1Q278.1 -25.9 277.8 -26.7Q277.4 -27.5 275.9 -27.5L275.9 -27.5Q273.8 -27.5 270.6 -27.2Q267.4 -26.8 264.9 -26.3L264.9 -26.3L264.6 -26.3Q263.7 -26.3 263.1 -27.3L263.1 -27.3Q264.5 -16.1 264.5 -8.2L264.5 -8.2Q264.5 -5 264.3 -3.3L264.3 -3.3Q264.3 -3 264 -2.6Q263.8 -2.1 263.6 -1.9L263.6 -1.9Q263.2 -1.6 262.6 -1.5Q261.9 -1.3 261.5 -1.1L261.5 -1.1Q260.1 -0.4 257.6 0Q255 0.4 252.8 0.4L252.8 0.4Q251.3 0.4 250.1 0.2L250.1 0.2Q249.1 0 248.4 -1.2Q247.6 -2.3 247.6 -4.3L247.6 -4.3Q247.6 -5.5 247.4 -7.9L247.4 -7.9Q247.3 -10.3 247.3 -11.6L247.3 -11.6L247.2 -13.4Q246.8 -18.9 246.9 -19.1L246.9 -19.1L247 -19.1Q247.5 -19.1 247.9 -19.2Q248.4 -19.3 248.5 -19.3L248.5 -19.3Q248.4 -18 248.7 -13.7Q249.1 -9.4 249.8 -9L249.8 -9Q250.3 -9.3 250.3 -10.5Q250.3 -11.7 250.3 -11.9L250.3 -11.9L250.5 -12Q250.5 -13.2 249.8 -18L249.8 -18Q249.7 -19.4 249.4 -21.8Q249.1 -24.3 249.2 -24.9L249.2 -24.9Q249.2 -25.1 248.6 -25.6L248.6 -25.6Q248.4 -25.3 247.8 -25Q247.2 -24.6 247 -24.4L247 -24.4Q246.9 -24.5 246.8 -24.5Q246.7 -24.5 246.7 -24.6L246.7 -24.6Q246.9 -26.8 247 -29.1Q247.1 -31.5 247.1 -32.5L247.1 -32.5Q247 -32.7 247 -33.2L247 -33.2Q247 -34.7 247.8 -36.1Q248.6 -37.4 249.6 -37.7L249.6 -37.7Q250.9 -38.1 253 -38.5Q255.2 -38.8 257 -38.8L257 -38.8Q260.9 -38.8 261.2 -37.3L261.2 -37.3Q261.1 -37.5 261.6 -35.8L261.6 -35.8Q262.1 -36.8 262.8 -37.1L262.8 -37.1Q265.4 -38 269.4 -38.6Q273.4 -39.1 277.4 -39.1L277.4 -39.1Q282.5 -39.1 286.3 -38.1Q290.2 -37.1 291.6 -34.9L291.6 -34.9Q293.6 -32 293.6 -24.8L293.6 -24.8M340.4 -0.5Q338.7 0 336.3 0L336.3 0Q332.4 0 329.8 -0.9L329.8 -0.9Q329.4 -1.1 328.7 -1.2Q328.1 -1.3 327.8 -1.6L327.8 -1.6Q327.5 -1.8 327.2 -2.1L327.2 -2.1Q326.2 -1.6 324.7 -1.6L324.7 -1.6L321.5 -1.3Q311.1 -0.3 308.2 -0.3L308.2 -0.3Q306.4 -0.3 305.5 -0.9Q304.7 -1.5 304 -3.2L304 -3.2Q302.6 -6.5 301.3 -15.8Q300 -25 300 -30.2L300 -30.2Q300 -32.7 301 -34.3Q302 -35.9 303.4 -36.4L303.4 -36.4Q305.5 -37.2 309.9 -37.6Q314.2 -38.1 317.9 -38.1L317.9 -38.1Q319.8 -38.1 320.2 -38L320.2 -38Q322.8 -37.7 323.8 -36.6Q324.9 -35.5 324.9 -33.6L324.9 -33.6Q324.9 -31 324 -29.5Q323.1 -28 321.8 -28.1L321.8 -28.1Q320.1 -28.3 319.4 -28.3L319.4 -28.3Q317.2 -28.3 316 -27.5L316 -27.5Q314.9 -27 314.5 -26.2Q314 -25.5 314 -24.4L314 -24.4Q314 -23.4 314.4 -20.9Q314.7 -18.3 314.8 -17.2L314.8 -17.2Q315.4 -13.5 315.5 -12L315.5 -12Q318.9 -12.2 323.5 -12.7L323.5 -12.7L325 -12.9Q325.7 -12.9 326 -12.8L326 -12.8Q325.9 -19 325.9 -23.1L325.9 -23.1Q325.9 -32 326.2 -39.9Q326.5 -47.9 327.1 -50.9L327.1 -50.9Q327.5 -52.8 332 -52.8L332 -52.8Q334.8 -52.8 337.9 -52.2L337.9 -52.2Q339 -52 339.9 -50.4Q340.8 -48.9 340.7 -47.2L340.7 -47.2Q340.7 -46.2 341 -43.9Q341.4 -41.5 341.7 -39.3L341.7 -39.3Q341.7 -39.3 341.5 -39.3Q341.4 -39.3 341.4 -39.2L341.4 -39.2Q341.2 -39.3 340.6 -39.7Q339.9 -40 339.7 -40.2L339.7 -40.2Q339.2 -39.8 339.2 -39.5L339.2 -39.5Q339.2 -39.1 339.2 -37.8L339.2 -37.8Q339.2 -36.4 339.1 -32.5L339.1 -32.5Q339 -27.4 339 -26.6L339 -26.6L339.2 -26.5Q339.2 -26.3 339.3 -25.1Q339.4 -23.9 339.9 -23.6L339.9 -23.6Q340.6 -23.9 340.6 -29.3L340.6 -29.3Q340.6 -32.2 340.4 -33.9L340.4 -33.9L340.5 -33.9Q340.8 -33.9 341.3 -33.9Q341.8 -33.8 341.9 -33.9L341.9 -33.9Q341.9 -33.8 342.1 -31.4L342.1 -31.4Q342.1 -28.2 342.2 -26.3L342.2 -26.3Q342.2 -26.5 342.4 -18.8L342.4 -18.8Q342.4 -10.1 342.5 -5.4L342.5 -5.4Q342.6 -3.3 341.9 -2Q341.3 -0.7 340.4 -0.5L340.4 -0.5M397.1 -4.4Q397.1 -2.8 396.4 -1.7Q395.8 -0.5 394.4 -0.2L394.4 -0.2Q391.6 0.4 389.1 0.4L389.1 0.4Q385.9 0.4 382.8 -0.6L382.8 -0.6Q379.7 -1.6 378.3 -3.7L378.3 -3.7Q377.9 -3 377.2 -2.6Q376.5 -2.1 375.1 -2.1L375.1 -2.1Q373.5 -2 369 -1.3L369 -1.3Q359.7 -0.3 357.8 -0.3L357.8 -0.3Q356 -0.3 355.1 -0.9Q354.3 -1.5 353.6 -3.2L353.6 -3.2Q352.2 -6.5 350.9 -15.8Q349.6 -25 349.6 -30.2L349.6 -30.2Q349.6 -32.7 350.6 -34.3Q351.6 -35.9 353 -36.4L353 -36.4Q355.1 -37.2 359.5 -37.6Q363.9 -38.1 367.6 -38.1L367.6 -38.1Q369.4 -38.1 369.8 -38L369.8 -38Q372.4 -37.7 373.5 -36.6Q374.5 -35.5 374.5 -33.6L374.5 -33.6Q374.5 -31 373.6 -29.5Q372.8 -28 371.4 -28.1L371.4 -28.1Q369.7 -28.3 369.1 -28.3L369.1 -28.3Q366.9 -28.3 365.6 -27.5L365.6 -27.5Q364.5 -27 364.1 -26.2Q363.7 -25.5 363.7 -24.4L363.7 -24.4Q363.7 -23.4 364.1 -20.2Q364.4 -17 364.6 -16L364.6 -16L365.2 -11.1Q367.4 -11.3 372.8 -12.1L372.8 -12.1Q374.3 -12.4 375.4 -12.5L375.4 -12.5Q376.2 -12.5 376.6 -12.4L376.6 -12.4Q376.1 -18.9 375.9 -23.6L375.9 -23.6Q375.7 -27 375.5 -30.6Q375.4 -34.3 375.3 -36L375.3 -36Q375.3 -36.7 376 -37.4L376 -37.4Q376.9 -38.3 379.1 -38.7Q381.4 -39 383.9 -39L383.9 -39Q388.5 -39 390.3 -38.2Q392 -37.3 392 -35.3L392 -35.3L392 -35.9Q391.8 -35.9 391.6 -30.5Q391.4 -25.1 391.4 -20.2L391.4 -20.2Q391.4 -12.4 392.1 -9.8L392.1 -9.8Q392.2 -9.2 392.9 -9.2L392.9 -9.2L393.8 -9.3Q394 -9.3 394.6 -9.2L394.6 -9.2Q395.8 -8.9 396.4 -7.5Q397.1 -6.1 397.1 -4.4L397.1 -4.4M425.1 -23.4Q424.4 -23.1 423.8 -23.1L423.8 -23.1Q422.8 -23.1 422.2 -23.9L422.2 -23.9Q421.2 -25.2 420.4 -26.5L420.4 -26.5Q419.8 -27.5 419.8 -28.3L419.8 -28.3Q419.8 -29.5 421.6 -30.7L421.6 -30.7L427.1 -34.1L432.5 -37.3Q433.9 -38.2 434.9 -38.2L434.9 -38.2Q436.7 -38.2 438.4 -35.9L438.4 -35.9Q439.7 -34.1 439.7 -32.6L439.7 -32.6Q439.7 -31.7 439.3 -31.3L439.3 -31.3Q439.1 -31 438.8 -30.8Q438.5 -30.6 438.4 -30.5L438.4 -30.5Q436.6 -29.1 433.3 -27.3Q430 -25.5 428.3 -24.8L428.3 -24.8L425.1 -23.4M418.9 -13.1Q418.9 -6 418.2 -2.7L418.2 -2.7Q418 -1.8 417.3 -1.3L417.3 -1.3Q417 -1.1 416.3 -1Q415.6 -0.8 415.2 -0.6L415.2 -0.6Q412.7 0.3 408.6 0.3L408.6 0.3Q406 0.3 404.3 -0.2L404.3 -0.2Q403.4 -0.5 402.6 -1.8Q401.9 -3.1 402.1 -5.1L402.1 -5.1Q402.3 -6.3 402.3 -8.9L402.3 -8.9L402.4 -12.2Q402.4 -13.5 402.5 -16Q402.5 -18.5 402.6 -19.7L402.6 -19.7L402.8 -19.7L404.2 -19.8Q404.1 -18.8 404.1 -15.6L404.1 -15.6Q404.1 -9.9 404.7 -9.4L404.7 -9.4Q405.3 -9.7 405.4 -10.9Q405.5 -12.1 405.5 -12.3L405.5 -12.3L405.6 -12.4Q405.7 -13 405.6 -15.3Q405.5 -17.6 405.5 -18.9L405.5 -18.9Q405.2 -24 405.3 -25.3L405.3 -25.3L405.3 -25.4Q405.3 -25.6 405.1 -25.8Q404.9 -26 404.8 -26.1L404.8 -26.1Q404.6 -25.9 404 -25.5Q403.3 -25.1 403.1 -25L403.1 -25L402.8 -25.2Q403.1 -26.7 403.2 -29.5Q403.4 -32.3 403.3 -32.7L403.3 -32.7Q403.2 -34.3 404.1 -35.8Q405.1 -37.3 406.2 -37.6L406.2 -37.6Q409.2 -38.3 412.1 -38.3L412.1 -38.3Q414.1 -38.3 415.6 -37.8Q417 -37.3 417.2 -36.4L417.2 -36.4Q417.9 -32.5 418.4 -25.8Q418.9 -19.2 418.9 -13.1L418.9 -13.1z" style="" fill="#ffffff" id="namepathdata"/></g></g>
              <g class="slogan"><g id="sloganDefaultGroup"><path d="M113.59999999999998 29.599999999999998L113.59999999999998 31.099999999999998L101.19999999999999 31.099999999999998L101.19999999999999 29.599999999999998L105.89999999999998 29.599999999999998L105.89999999999998 13.999999999999996L107.39999999999998 14.099999999999998L107.39999999999998 19.699999999999996L112.59999999999998 19.699999999999996L112.59999999999998 21.099999999999998L107.39999999999998 21.099999999999998L107.39999999999998 29.599999999999998L113.59999999999998 29.599999999999998M100.19999999999999 19.299999999999997Q99.89999999999998 18.799999999999997 99.59999999999998 18.299999999999997Q99.19999999999999 17.699999999999996 98.79999999999998 17.099999999999998Q98.29999999999998 16.599999999999998 97.89999999999998 16.099999999999998Q97.49999999999999 15.599999999999998 97.19999999999999 15.299999999999997L97.19999999999999 15.299999999999997L98.29999999999998 14.299999999999997Q98.59999999999998 14.599999999999998 98.99999999999999 15.099999999999998Q99.39999999999998 15.599999999999998 99.89999999999998 16.199999999999996Q100.29999999999998 16.699999999999996 100.69999999999999 17.199999999999996Q100.99999999999999 17.699999999999996 101.29999999999998 18.099999999999998L101.29999999999998 18.099999999999998L100.19999999999999 19.299999999999997M102.79999999999998 27.9Q102.69999999999999 27.999999999999996 102.19999999999999 28.4Q101.79999999999998 28.7 101.39999999999998 29.099999999999998Q100.89999999999998 29.499999999999996 100.39999999999998 29.9Q99.99999999999999 30.299999999999997 99.79999999999998 30.499999999999996L99.79999999999998 30.499999999999996Q99.49999999999999 30.7 99.29999999999998 30.999999999999996Q98.99999999999999 31.299999999999997 98.69999999999999 31.499999999999996L98.69999999999999 31.499999999999996L97.79999999999998 30.4Q98.19999999999999 30.099999999999998 98.29999999999998 29.9Q98.39999999999998 29.599999999999998 98.39999999999998 29.2L98.39999999999998 29.2L98.39999999999998 22L95.69999999999999 22L95.69999999999999 20.599999999999998L99.89999999999998 20.599999999999998L99.89999999999998 28.7Q99.99999999999999 28.599999999999998 100.39999999999998 28.299999999999997Q100.69999999999999 27.9 101.09999999999998 27.599999999999998Q101.49999999999999 27.2 101.79999999999998 26.9Q102.09999999999998 26.599999999999998 102.19999999999999 26.499999999999996L102.19999999999999 26.499999999999996L102.79999999999998 27.9M133.09999999999997 29.599999999999998L133.09999999999997 31.099999999999998L116.09999999999998 31.099999999999998L116.09999999999998 29.599999999999998L123.89999999999998 29.599999999999998L123.89999999999998 24.9L117.79999999999998 24.9L117.79999999999998 23.5L123.89999999999998 23.5L123.89999999999998 19.4L119.09999999999998 19.4Q118.59999999999998 20.4 118.09999999999998 21.4Q117.49999999999999 22.299999999999997 116.89999999999998 23.299999999999997L116.89999999999998 23.299999999999997L115.59999999999998 22.299999999999997Q116.79999999999998 20.599999999999998 117.79999999999998 18.799999999999997Q118.69999999999999 17 119.29999999999998 14.799999999999997L119.29999999999998 14.799999999999997L120.69999999999999 15.199999999999998Q120.49999999999999 15.899999999999999 120.29999999999998 16.599999999999998Q119.99999999999999 17.299999999999997 119.79999999999998 17.9L119.79999999999998 17.9L123.89999999999998 17.9L123.89999999999998 13.999999999999996L125.49999999999999 14.099999999999998L125.49999999999999 17.9L132.2 17.9L132.2 19.4L125.49999999999999 19.4L125.49999999999999 23.5L131.5 23.5L131.5 24.9L125.49999999999999 24.9L125.49999999999999 29.599999999999998L133.09999999999997 29.599999999999998M139.59999999999997 18.799999999999997Q139.2 18.4 138.7 18Q138.29999999999998 17.599999999999998 137.79999999999998 17.199999999999996Q137.2 16.799999999999997 136.79999999999998 16.4Q136.29999999999998 16.099999999999998 135.89999999999998 15.899999999999999L135.89999999999998 15.899999999999999L136.7 14.699999999999998Q137.09999999999997 14.899999999999999 137.59999999999997 15.199999999999998Q138.09999999999997 15.599999999999998 138.59999999999997 15.999999999999998Q139.09999999999997 16.299999999999997 139.59999999999997 16.699999999999996Q140.09999999999997 17.099999999999998 140.39999999999998 17.4L140.39999999999998 17.4L139.59999999999997 18.799999999999997M147.09999999999997 21.5L147.09999999999997 24.5L151.2 24.5L151.2 32.199999999999996L149.7 32.199999999999996L149.7 31.099999999999998L143 31.099999999999998L143 32.199999999999996L141.5 32.199999999999996L141.5 24.5L145.5 24.5L145.5 21.5L140.39999999999998 21.5L140.39999999999998 20.099999999999998L145.5 20.099999999999998L145.5 17Q144.29999999999998 17.099999999999998 143.09999999999997 17.199999999999996Q142 17.199999999999996 141.09999999999997 17.299999999999997L141.09999999999997 17.299999999999997L140.79999999999998 15.899999999999999Q142 15.799999999999997 143.39999999999998 15.699999999999998Q144.79999999999998 15.599999999999998 146.29999999999998 15.499999999999998Q147.7 15.399999999999999 149.09999999999997 15.199999999999998Q150.39999999999998 14.999999999999998 151.39999999999998 14.899999999999999L151.39999999999998 14.899999999999999L151.7 16.299999999999997Q150.79999999999998 16.4 149.59999999999997 16.5Q148.39999999999998 16.699999999999996 147.09999999999997 16.799999999999997L147.09999999999997 16.799999999999997L147.09999999999997 20.099999999999998L152.89999999999998 20.099999999999998L152.89999999999998 21.5L147.09999999999997 21.5M135.79999999999998 19.199999999999996Q136.2 19.5 136.7 19.799999999999997Q137.29999999999998 20.199999999999996 137.79999999999998 20.599999999999998Q138.39999999999998 21 138.89999999999998 21.4Q139.39999999999998 21.799999999999997 139.7 22.099999999999998L139.7 22.099999999999998L138.79999999999998 23.599999999999998Q138.5 23.199999999999996 138 22.799999999999997Q137.5 22.299999999999997 136.89999999999998 21.9Q136.39999999999998 21.5 135.89999999999998 21.099999999999998Q135.29999999999998 20.699999999999996 135 20.4L135 20.4L135.79999999999998 19.199999999999996M138.89999999999998 24.9L139.7 25.199999999999996Q139.5 25.9 139.2 26.799999999999997Q138.89999999999998 27.7 138.59999999999997 28.599999999999998Q138.2 29.499999999999996 137.89999999999998 30.4Q137.5 31.299999999999997 137.2 31.799999999999997L137.2 31.799999999999997L135.79999999999998 31.299999999999997Q136.09999999999997 30.799999999999997 136.39999999999998 29.9Q136.79999999999998 28.999999999999996 137.2 28.099999999999998Q137.5 27.2 137.79999999999998 26.299999999999997Q138.09999999999997 25.299999999999997 138.29999999999998 24.699999999999996L138.29999999999998 24.699999999999996L138.89999999999998 24.9M149.7 25.9L143 25.9L143 29.599999999999998L149.7 29.599999999999998L149.7 25.9M172.29999999999998 31.599999999999998Q170.39999999999998 31.499999999999996 169 31.299999999999997Q167.5 31.2 166.29999999999998 30.9Q165.09999999999997 30.7 164.09999999999997 30.4Q163.2 30.099999999999998 162.29999999999998 29.7L162.29999999999998 29.7Q161.29999999999998 30.499999999999996 159.59999999999997 31.099999999999998Q157.89999999999998 31.7 155.39999999999998 32.3L155.39999999999998 32.3L154.79999999999998 30.999999999999996Q157 30.499999999999996 158.5 29.999999999999996Q160 29.499999999999996 160.89999999999998 28.9L160.89999999999998 28.9Q160.2 28.4 159.39999999999998 27.7Q158.7 27.099999999999998 157.79999999999998 26.2L157.79999999999998 26.2L158.59999999999997 25.5L157.09999999999997 25.5L157.09999999999997 18.099999999999998L163 18.099999999999998L163 16.4L155.59999999999997 16.4L155.59999999999997 14.999999999999998L171.89999999999998 14.999999999999998L171.89999999999998 16.4L164.59999999999997 16.4L164.59999999999997 18.099999999999998L170.39999999999998 18.099999999999998L170.39999999999998 25.5L164.5 25.5Q164.39999999999998 26.499999999999996 164.09999999999997 27.299999999999997Q163.79999999999998 27.999999999999996 163.39999999999998 28.7L163.39999999999998 28.7Q164.2 28.999999999999996 165.09999999999997 29.2Q166 29.499999999999996 167.2 29.7Q168.29999999999998 29.9 169.59999999999997 29.999999999999996Q171 30.099999999999998 172.59999999999997 30.099999999999998L172.59999999999997 30.099999999999998L172.29999999999998 31.599999999999998M158.59999999999997 19.4L158.59999999999997 21.199999999999996L163 21.199999999999996L163 19.4L158.59999999999997 19.4M164.59999999999997 19.4L164.59999999999997 21.199999999999996L169 21.199999999999996L169 19.4L164.59999999999997 19.4M158.59999999999997 24.199999999999996L163 24.199999999999996L163 23.9L163 22.4L158.59999999999997 22.4L158.59999999999997 24.199999999999996M169 24.199999999999996L169 22.4L164.59999999999997 22.4L164.59999999999997 23.9L164.59999999999997 24.199999999999996L169 24.199999999999996M159 25.5Q159.7 26.299999999999997 160.39999999999998 26.9Q161.2 27.499999999999996 162 27.999999999999996L162 27.999999999999996Q162.39999999999998 27.499999999999996 162.59999999999997 26.9Q162.89999999999998 26.299999999999997 163 25.5L163 25.5L159 25.5M177.79999999999998 16.9Q177.29999999999998 17.699999999999996 176.7 18.4Q176.2 19.099999999999998 175.7 19.699999999999996L175.7 19.699999999999996L174.5 18.799999999999997Q175 18.299999999999997 175.59999999999997 17.599999999999998Q176.09999999999997 17 176.5 16.299999999999997Q177 15.599999999999998 177.39999999999998 14.899999999999999Q177.7 14.299999999999997 178 13.7L178 13.7L179.5 13.899999999999999Q179.29999999999998 14.299999999999997 179.09999999999997 14.699999999999998Q178.79999999999998 15.199999999999998 178.59999999999997 15.599999999999998L178.59999999999997 15.599999999999998L183.5 15.599999999999998L183.5 16.9L180.2 16.9L181.09999999999997 18.699999999999996L180 19.299999999999997Q179.79999999999998 18.799999999999997 179.39999999999998 18.099999999999998Q179.09999999999997 17.4 178.79999999999998 16.9L178.79999999999998 16.9L177.79999999999998 16.9M192.09999999999997 15.599999999999998L192.09999999999997 16.9L188.39999999999998 16.9Q188.59999999999997 17.4 188.89999999999998 17.799999999999997Q189.09999999999997 18.299999999999997 189.29999999999998 18.599999999999998L189.29999999999998 18.599999999999998L188.09999999999997 19.199999999999996Q187.89999999999998 18.699999999999996 187.59999999999997 18.099999999999998Q187.29999999999998 17.4 187 16.9L187 16.9L185.39999999999998 16.9Q185 17.5 184.7 18.099999999999998Q184.29999999999998 18.699999999999996 183.89999999999998 19.199999999999996L183.89999999999998 19.199999999999996L182.7 18.5Q183.5 17.4 184.2 16.199999999999996Q184.89999999999998 14.899999999999999 185.39999999999998 13.7L185.39999999999998 13.7L186.89999999999998 13.899999999999999Q186.7 14.299999999999997 186.5 14.799999999999997Q186.29999999999998 15.199999999999998 186.09999999999997 15.599999999999998L186.09999999999997 15.599999999999998L192.09999999999997 15.599999999999998M177.5 18.5Q177.79999999999998 18.699999999999996 178.09999999999997 19Q178.39999999999998 19.299999999999997 178.7 19.599999999999998Q179.09999999999997 20 179.39999999999998 20.299999999999997Q179.7 20.599999999999998 179.89999999999998 20.9L179.89999999999998 20.9L178.89999999999998 22Q178.7 21.699999999999996 178.39999999999998 21.299999999999997Q178.09999999999997 21 177.79999999999998 20.599999999999998Q177.5 20.299999999999997 177.2 20Q176.89999999999998 19.699999999999996 176.59999999999997 19.5L176.59999999999997 19.5L177.5 18.5M180.59999999999997 19.5L190.79999999999998 19.5L190.79999999999998 29.499999999999996Q190.79999999999998 30.2 190.7 30.599999999999998Q190.59999999999997 31.099999999999998 190.29999999999998 31.299999999999997Q190 31.599999999999998 189.39999999999998 31.7Q188.89999999999998 31.799999999999997 188 31.9L188 31.9L187.09999999999997 31.999999999999996L186.59999999999997 30.599999999999998L187.79999999999998 30.499999999999996Q188.39999999999998 30.4 188.7 30.4Q189 30.299999999999997 189.09999999999997 30.2Q189.29999999999998 29.999999999999996 189.29999999999998 29.799999999999997Q189.29999999999998 29.499999999999996 189.29999999999998 29.099999999999998L189.29999999999998 29.099999999999998L189.29999999999998 20.799999999999997L180.59999999999997 20.799999999999997L180.59999999999997 19.5M175.89999999999998 21.5L177.39999999999998 21.599999999999998L177.39999999999998 31.9L175.89999999999998 31.9L175.89999999999998 21.5M186.89999999999998 29.7L179.79999999999998 29.7L179.79999999999998 22.599999999999998L186.89999999999998 22.599999999999998L186.89999999999998 29.7M181.09999999999997 23.799999999999997L181.09999999999997 25.5L185.59999999999997 25.5L185.59999999999997 23.799999999999997L181.09999999999997 23.799999999999997M185.59999999999997 28.499999999999996L185.59999999999997 26.799999999999997L181.09999999999997 26.799999999999997L181.09999999999997 28.499999999999996L185.59999999999997 28.499999999999996M211.59999999999997 28.7L203.79999999999998 28.7L203.79999999999998 32.3L202.29999999999998 32.3L202.29999999999998 28.7L194.39999999999998 28.7L194.39999999999998 27.299999999999997L202.29999999999998 27.299999999999997L202.29999999999998 25.099999999999998L196.5 25.099999999999998L196.5 16.699999999999996L199.7 16.699999999999996Q199.39999999999998 16.099999999999998 199.09999999999997 15.499999999999998Q198.7 14.899999999999999 198.29999999999998 14.399999999999999L198.29999999999998 14.399999999999999L199.5 13.799999999999997Q199.7 13.999999999999996 200 14.299999999999997Q200.2 14.699999999999998 200.39999999999998 14.999999999999998Q200.7 15.299999999999997 200.89999999999998 15.699999999999998Q201.09999999999997 15.999999999999998 201.2 16.299999999999997L201.2 16.299999999999997L200.59999999999997 16.699999999999996L204.5 16.699999999999996Q204.79999999999998 16.4 205.09999999999997 15.999999999999998Q205.29999999999998 15.599999999999998 205.59999999999997 15.199999999999998Q205.79999999999998 14.799999999999997 206.09999999999997 14.399999999999999Q206.29999999999998 13.999999999999996 206.39999999999998 13.7L206.39999999999998 13.7L207.79999999999998 14.299999999999997Q207.5 14.799999999999997 207.09999999999997 15.399999999999999Q206.7 16.099999999999998 206.29999999999998 16.699999999999996L206.29999999999998 16.699999999999996L209.59999999999997 16.699999999999996L209.59999999999997 25.099999999999998L203.79999999999998 25.099999999999998L203.79999999999998 27.299999999999997L211.59999999999997 27.299999999999997L211.59999999999997 28.7M198 18L198 20.199999999999996L202.29999999999998 20.199999999999996L202.29999999999998 18L198 18M208.09999999999997 18L203.79999999999998 18L203.79999999999998 20.199999999999996L208.09999999999997 20.199999999999996L208.09999999999997 18M202.29999999999998 23.699999999999996L202.29999999999998 21.5L198 21.5L198 23.699999999999996L202.29999999999998 23.699999999999996M208.09999999999997 23.699999999999996L208.09999999999997 21.5L203.79999999999998 21.5L203.79999999999998 23.699999999999996L208.09999999999997 23.699999999999996M215.59999999999997 32.8Q216 32.199999999999996 216.39999999999998 31.499999999999996Q216.7 30.799999999999997 217 30.099999999999998Q217.2 29.4 217.29999999999998 28.799999999999997Q217.5 28.099999999999998 217.5 27.599999999999998L217.5 27.599999999999998L219.09999999999997 27.599999999999998Q219.09999999999997 28.2 218.89999999999998 28.9Q218.7 29.7 218.39999999999998 30.4Q218.09999999999997 31.099999999999998 217.79999999999998 31.7Q217.39999999999998 32.3 217 32.8L217 32.8L215.59999999999997 32.8M251.39999999999998 29.599999999999998L251.39999999999998 31.099999999999998L238.89999999999998 31.099999999999998L238.89999999999998 29.599999999999998L243.6 29.599999999999998L243.6 13.999999999999996L245.1 14.099999999999998L245.1 19.699999999999996L250.39999999999998 19.699999999999996L250.39999999999998 21.099999999999998L245.1 21.099999999999998L245.1 29.599999999999998L251.39999999999998 29.599999999999998M237.89999999999998 19.299999999999997Q237.7 18.799999999999997 237.29999999999998 18.299999999999997Q236.89999999999998 17.699999999999996 236.49999999999997 17.099999999999998Q236.1 16.599999999999998 235.7 16.099999999999998Q235.29999999999998 15.599999999999998 234.99999999999997 15.299999999999997L234.99999999999997 15.299999999999997L235.99999999999997 14.299999999999997Q236.39999999999998 14.599999999999998 236.79999999999998 15.099999999999998Q237.2 15.599999999999998 237.6 16.199999999999996Q237.99999999999997 16.699999999999996 238.39999999999998 17.199999999999996Q238.79999999999998 17.699999999999996 238.99999999999997 18.099999999999998L238.99999999999997 18.099999999999998L237.89999999999998 19.299999999999997M240.6 27.9Q240.39999999999998 27.999999999999996 239.99999999999997 28.4Q239.6 28.7 239.1 29.099999999999998Q238.6 29.499999999999996 238.2 29.9Q237.7 30.299999999999997 237.49999999999997 30.499999999999996L237.49999999999997 30.499999999999996Q237.29999999999998 30.7 236.99999999999997 30.999999999999996Q236.7 31.299999999999997 236.49999999999997 31.499999999999996L236.49999999999997 31.499999999999996L235.6 30.4Q235.89999999999998 30.099999999999998 235.99999999999997 29.9Q236.2 29.599999999999998 236.2 29.2L236.2 29.2L236.2 22L233.49999999999997 22L233.49999999999997 20.599999999999998L237.6 20.599999999999998L237.6 28.7Q237.79999999999998 28.599999999999998 238.1 28.299999999999997Q238.49999999999997 27.9 238.89999999999998 27.599999999999998Q239.29999999999998 27.2 239.6 26.9Q239.89999999999998 26.599999999999998 239.99999999999997 26.499999999999996L239.99999999999997 26.499999999999996L240.6 27.9M270.79999999999995 29.2L270.79999999999995 30.799999999999997L253.39999999999998 30.799999999999997L253.39999999999998 29.2L261.29999999999995 29.2L261.29999999999995 17.299999999999997L254.79999999999998 17.299999999999997L254.79999999999998 15.699999999999998L269.4 15.699999999999998L269.4 17.299999999999997L263 17.299999999999997L263 29.2L270.79999999999995 29.2M284.1 18.5L284.1 21.599999999999998L289.2 21.599999999999998L289.2 23.099999999999998L284.1 23.099999999999998L284.1 26.299999999999997L289.6 26.299999999999997L289.6 27.799999999999997L284.1 27.799999999999997L284.1 32.099999999999994L282.5 32.099999999999994L282.5 18.5L281.6 18.5Q281.1 19.5 280.4 20.599999999999998Q279.6 21.699999999999996 278.6 23L278.6 23L277.5 21.9Q278.4 20.9 279.1 19.9Q279.7 18.9 280.2 18Q280.79999999999995 17 281.2 15.999999999999998Q281.6 15.099999999999998 281.9 14.099999999999998L281.9 14.099999999999998L283.29999999999995 14.599999999999998Q283.1 15.199999999999998 282.9 15.799999999999997Q282.7 16.299999999999997 282.4 17L282.4 17L290.29999999999995 17L290.29999999999995 18.5L284.1 18.5M278.6 14.999999999999998Q278.29999999999995 15.799999999999997 277.9 16.799999999999997Q277.5 17.699999999999996 276.9 18.799999999999997L276.9 18.799999999999997L276.9 32.099999999999994L275.4 32.099999999999994L275.4 21.5Q274.5 22.9 273.4 24.199999999999996L273.4 24.199999999999996L272.29999999999995 23.099999999999998Q273.29999999999995 22 274 20.9Q274.79999999999995 19.699999999999996 275.4 18.599999999999998Q276 17.5 276.4 16.4Q276.79999999999995 15.399999999999999 277.2 14.399999999999999L277.2 14.399999999999999L278.6 14.999999999999998M310 31.599999999999998Q308.2 31.499999999999996 306.7 31.299999999999997Q305.2 31.2 304 30.9Q302.79999999999995 30.7 301.9 30.4Q300.9 30.099999999999998 300.1 29.7L300.1 29.7Q299 30.499999999999996 297.4 31.099999999999998Q295.7 31.7 293.2 32.3L293.2 32.3L292.6 30.999999999999996Q294.79999999999995 30.499999999999996 296.29999999999995 29.999999999999996Q297.7 29.499999999999996 298.7 28.9L298.7 28.9Q297.9 28.4 297.2 27.7Q296.4 27.099999999999998 295.6 26.2L295.6 26.2L296.4 25.5L294.9 25.5L294.9 18.099999999999998L300.79999999999995 18.099999999999998L300.79999999999995 16.4L293.4 16.4L293.4 14.999999999999998L309.7 14.999999999999998L309.7 16.4L302.29999999999995 16.4L302.29999999999995 18.099999999999998L308.2 18.099999999999998L308.2 25.5L302.2 25.5Q302.1 26.499999999999996 301.9 27.299999999999997Q301.6 27.999999999999996 301.1 28.7L301.1 28.7Q301.9 28.999999999999996 302.9 29.2Q303.79999999999995 29.499999999999996 304.9 29.7Q306.1 29.9 307.4 29.999999999999996Q308.79999999999995 30.099999999999998 310.4 30.099999999999998L310.4 30.099999999999998L310 31.599999999999998M296.29999999999995 19.4L296.29999999999995 21.199999999999996L300.79999999999995 21.199999999999996L300.79999999999995 19.4L296.29999999999995 19.4M302.29999999999995 19.4L302.29999999999995 21.199999999999996L306.7 21.199999999999996L306.7 19.4L302.29999999999995 19.4M296.29999999999995 24.199999999999996L300.79999999999995 24.199999999999996L300.79999999999995 23.9L300.79999999999995 22.4L296.29999999999995 22.4L296.29999999999995 24.199999999999996M306.7 24.199999999999996L306.7 22.4L302.29999999999995 22.4L302.29999999999995 23.9L302.29999999999995 24.199999999999996L306.7 24.199999999999996M296.7 25.5Q297.5 26.299999999999997 298.2 26.9Q298.9 27.499999999999996 299.79999999999995 27.999999999999996L299.79999999999995 27.999999999999996Q300.2 27.499999999999996 300.4 26.9Q300.6 26.299999999999997 300.7 25.5L300.7 25.5L296.7 25.5M320.1 27.7Q319.6 27.799999999999997 318.9 27.9Q318.29999999999995 27.999999999999996 317.6 28.099999999999998L317.6 28.099999999999998L317.6 32.099999999999994L316.1 32.099999999999994L316.1 28.299999999999997Q315 28.499999999999996 314 28.599999999999998Q313 28.799999999999997 312.2 28.9L312.2 28.9L312 27.4Q312.79999999999995 27.299999999999997 313.9 27.2Q315 26.999999999999996 316.1 26.9L316.1 26.9L316.1 23.9L312.9 23.9L312.9 22.5Q313.2 21.699999999999996 313.6 20.5Q314 19.299999999999997 314.4 18.099999999999998L314.4 18.099999999999998L312.5 18.099999999999998L312.5 16.599999999999998L314.79999999999995 16.599999999999998Q315 15.899999999999999 315.2 15.199999999999998Q315.29999999999995 14.499999999999998 315.5 13.899999999999999L315.5 13.899999999999999L316.79999999999995 14.199999999999998Q316.7 14.799999999999997 316.6 15.399999999999999Q316.4 15.999999999999998 316.2 16.599999999999998L316.2 16.599999999999998L319.9 16.599999999999998L319.9 18.099999999999998L315.79999999999995 18.099999999999998Q315.5 19.299999999999997 315.1 20.5Q314.7 21.699999999999996 314.4 22.5L314.4 22.5L316.1 22.5L316.1 19L317.6 19.099999999999998L317.6 22.5L319.5 22.5L319.5 23.9L317.6 23.9L317.6 26.7Q318.29999999999995 26.599999999999998 318.9 26.499999999999996Q319.5 26.4 320 26.299999999999997L320 26.299999999999997L320.1 27.7M319.7 22.099999999999998Q321.79999999999995 21 323.5 19.699999999999996Q325.1 18.4 326.2 16.799999999999997L326.2 16.799999999999997L320.4 16.799999999999997L320.4 15.399999999999999L328.2 15.399999999999999L328.2 16.699999999999996Q327.7 17.5 327.1 18.199999999999996Q326.5 18.9 325.9 19.5L325.9 19.5Q326.4 19.799999999999997 327.1 20.199999999999996Q327.7 20.5 328.29999999999995 20.9Q328.79999999999995 21.199999999999996 329.4 21.599999999999998Q329.9 21.9 330.2 22.199999999999996L330.2 22.199999999999996L329.6 23.599999999999998Q329.2 23.299999999999997 328.7 22.9Q328.1 22.5 327.5 22Q326.79999999999995 21.599999999999998 326.1 21.199999999999996Q325.4 20.799999999999997 324.79999999999995 20.5L324.79999999999995 20.5Q323.9 21.299999999999997 322.79999999999995 22Q321.7 22.799999999999997 320.5 23.4L320.5 23.4L319.7 22.099999999999998M325.29999999999995 29.7L329.9 29.7L329.9 31.2L319.2 31.2L319.2 29.7L323.79999999999995 29.7L323.79999999999995 25.799999999999997L320.29999999999995 25.799999999999997L320.29999999999995 24.299999999999997L328.79999999999995 24.299999999999997L328.79999999999995 25.799999999999997L325.29999999999995 25.799999999999997L325.29999999999995 29.7M338.2 25.299999999999997Q338 25 337.79999999999995 24.699999999999996Q337.6 24.4 337.29999999999995 24Q337.1 23.699999999999996 336.79999999999995 23.299999999999997Q336.5 23 336.29999999999995 22.699999999999996L336.29999999999995 22.699999999999996L336.29999999999995 31.999999999999996L334.9 31.999999999999996L334.9 22.4Q334.4 23.599999999999998 333.79999999999995 24.799999999999997Q333.2 26 332.5 26.999999999999996L332.5 26.999999999999996L331.4 26.099999999999998Q331.79999999999995 25.4 332.29999999999995 24.599999999999998Q332.79999999999995 23.799999999999997 333.29999999999995 22.9Q333.7 22 334.1 21Q334.5 20.099999999999998 334.79999999999995 19.199999999999996L334.79999999999995 19.199999999999996L332.2 19.199999999999996L332.2 17.799999999999997L334.9 17.799999999999997L334.9 13.899999999999999L336.29999999999995 13.899999999999999L336.29999999999995 17.799999999999997L338.5 17.799999999999997L338.5 19.199999999999996L336.29999999999995 19.199999999999996L336.29999999999995 21.699999999999996L336.7 21.299999999999997Q337 21.5 337.29999999999995 21.9Q337.7 22.199999999999996 338 22.699999999999996Q338.4 23.099999999999998 338.7 23.5Q339 23.9 339.2 24.199999999999996L339.2 24.199999999999996L338.2 25.299999999999997M348.79999999999995 23.799999999999997Q348 22.699999999999996 347.29999999999995 21.599999999999998Q346.6 20.599999999999998 346 19.5Q345.4 18.4 345 17.099999999999998Q344.5 15.799999999999997 344.2 14.299999999999997L344.2 14.299999999999997L345.5 13.999999999999996Q346.2 16.799999999999997 347.29999999999995 18.9Q348.5 21 350.1 22.699999999999996L350.1 22.699999999999996L348.79999999999995 23.799999999999997M338.1 22Q339.4 20.4 340.2 18.599999999999998Q341.1 16.799999999999997 341.6 14.699999999999998L341.6 14.699999999999998L343 14.999999999999998Q342.29999999999995 17.299999999999997 341.4 19.299999999999997Q340.5 21.299999999999997 339.29999999999995 22.9L339.29999999999995 22.9L338.1 22M345.79999999999995 24.799999999999997Q346.2 25.4 346.6 26.099999999999998Q347 26.9 347.4 27.7Q347.79999999999995 28.599999999999998 348.2 29.499999999999996Q348.6 30.4 348.9 31.299999999999997L348.9 31.299999999999997L347.5 32.099999999999994Q347.2 31.2 346.9 30.299999999999997L346.9 30.299999999999997Q346.5 30.299999999999997 346 30.4Q345.4 30.4 344.7 30.499999999999996Q344.1 30.499999999999996 343.4 30.599999999999998Q342.6 30.7 342 30.7Q341.4 30.799999999999997 341 30.799999999999997Q340.5 30.9 340.4 30.9L340.4 30.9Q340 30.9 339.6 30.999999999999996Q339.2 30.999999999999996 338.9 31.099999999999998L338.9 31.099999999999998L338.5 29.7Q338.9 29.499999999999996 339 29.299999999999997Q339.2 29.2 339.4 28.9L339.4 28.9Q339.79999999999995 28.2 340.2 27.299999999999997Q340.7 26.299999999999997 341.1 25.299999999999997Q341.5 24.299999999999997 341.9 23.199999999999996Q342.4 22.099999999999998 342.7 21L342.7 21L344.1 21.4Q343.7 22.5 343.29999999999995 23.599999999999998Q342.9 24.699999999999996 342.5 25.799999999999997Q342 26.799999999999997 341.6 27.7Q341.2 28.599999999999998 340.79999999999995 29.4L340.79999999999995 29.4Q341.1 29.299999999999997 341.79999999999995 29.299999999999997Q342.5 29.2 343.29999999999995 29.2Q344.1 29.099999999999998 344.9 28.999999999999996Q345.79999999999995 28.9 346.29999999999995 28.9L346.29999999999995 28.9Q345.79999999999995 27.799999999999997 345.4 26.9Q344.9 26 344.5 25.299999999999997L344.5 25.299999999999997L345.79999999999995 24.799999999999997z" style="" fill="#ffffff" id="sloganpathdata"/></g></g>
            </g>
            <g class="border">
            </g>
          </g>
          
          <defs id="defs">
            <mask xmlns="http://www.w3.org/2000/svg" id="mask">
                <rect id="showAll" fill="white" x="121.37499999999999" y="-270.95" width="201.25" height="201.25"/>
                <rect id="hideNameBg" fill="black" x="0" y="0" width="0" height="0" stroke-width="2" stroke="black"/>
                <rect id="hideSloganBg" fill="black" x="0" y="0" width="0" height="0" stroke-width="2" stroke="black"/>
            <path d="M55.4 -29.4Q55.4 -22.6 55.1 -16.6Q54.8 -10.6 54.5 -8.4L54.5 -8.4Q54.2 -7 53.5 -5.9Q52.8 -4.8 52 -4.3L52 -4.3Q50.8 -3.6 48.8 -3.1L48.8 -3.1Q46 -2.2 41.9 -1.7Q37.7 -1.3 33.6 -1.3L33.6 -1.3Q28.7 -1.3 26.1 -1.8L26.1 -1.8Q24 -2.3 22.6 -3.4L22.6 -3.4Q22.2 -2 20.2 -1.4Q18.2 -0.8 15.5 -0.8L15.5 -0.8Q12.3 -0.8 9.9 -1.3L9.9 -1.3Q8.5 -1.6 7.2 -3.5Q5.8 -5.4 5.7 -7.7L5.7 -7.7Q5.3 -14.4 5.1 -20.3L5.1 -20.3L4.8 -28.5L5.2 -28.8L6.7 -27.6Q6.8 -27.8 7 -28.1Q7.2 -28.4 7.2 -28.5L7.2 -28.5L6.6 -35.9Q6.5 -37.1 6.5 -39.5L6.5 -39.5L6.5 -45.7Q5.5 -44.9 5.5 -41.7L5.5 -41.7Q5.5 -39.1 5.5 -37.9Q5.5 -36.8 5.5 -36.2L5.5 -36.2Q5.5 -35.8 5.6 -34.4L5.6 -34.4L4.8 -34.4Q4.3 -35.3 4.3 -35.6L4.3 -35.6Q4.3 -37.7 4.3 -39.6Q4.4 -41.5 4.5 -42.9L4.5 -42.9Q4.6 -46 4.6 -47.1L4.6 -47.1Q4.7 -49.9 5.4 -51.5Q6.2 -53 7.9 -53.3L7.9 -53.3Q10.4 -53.7 13.3 -53.7L13.3 -53.7Q18 -53.7 21.2 -52.6L21.2 -52.6Q22.9 -52 23.6 -50.7Q24.4 -49.5 24.4 -47.4L24.4 -47.4Q24.4 -26.9 23.6 -13.7L23.6 -13.7Q24 -13.9 24.7 -13.8L24.7 -13.8Q27.3 -13.2 30.5 -13.2L30.5 -13.2Q32.7 -13.2 34.3 -13.5Q36 -13.8 36.6 -14.4L36.6 -14.4Q37.3 -15.2 37.6 -18.1L37.6 -18.1Q37.8 -21 37.8 -24.6L37.8 -24.6Q37.8 -33.7 36.7 -46.6L36.7 -46.6Q36.6 -47.1 36.6 -48L36.6 -48Q36.6 -50.3 37.6 -51.5Q38.6 -52.8 40.8 -53.2L40.8 -53.2Q43.7 -53.9 46.3 -53.9L46.3 -53.9Q49.3 -53.9 51.5 -53Q53.7 -52.2 54.1 -50.3L54.1 -50.3Q55.4 -44.7 55.4 -29.4L55.4 -29.4M93 0.4Q90.5 0.5 89.2 0.5L89.2 0.5Q77 0.5 69.3 -6.2L69.3 -6.2Q67 -8.2 65.4 -11.8Q63.8 -15.3 63.4 -18.9L63.4 -18.9Q63.2 -20.4 63.2 -22.9L63.2 -22.9Q63.2 -29.6 65.8 -40.1L65.8 -40.1Q65.8 -40.2 66.1 -40.3Q66.4 -40.4 66.7 -40.4L66.7 -40.4Q67.6 -40.4 67.4 -39.8L67.4 -39.8Q66 -35.2 65.5 -32Q65 -28.7 65 -24.1L65 -24.1Q65 -21.6 65.1 -20.2L65.1 -20.2Q65.1 -20 65.4 -20L65.4 -20Q65.7 -20 66 -20.2Q66.4 -20.5 66.4 -20.9L66.4 -20.9Q66.4 -31.4 69.1 -41.1L69.1 -41.1Q68.8 -41.8 68.4 -42Q68 -42.2 67.2 -42.2L67.2 -42.2Q71.8 -48.5 77.8 -51.6Q83.8 -54.7 93.1 -54.7L93.1 -54.7Q102.9 -54.7 108.7 -50.5Q114.5 -46.3 116.1 -38.6L116.1 -38.6Q116.2 -37.8 116.2 -37.4L116.2 -37.4Q116.2 -34.9 113.9 -33.5Q111.6 -32.2 108.6 -32.2L108.6 -32.2Q105.6 -32.2 103.2 -33.4Q100.9 -34.7 100.6 -36.9L100.6 -36.9Q100.3 -39.7 98 -41.9Q95.7 -44 92.9 -43.9L92.9 -43.9Q85.8 -43.7 83.5 -37.6L83.5 -37.6Q81.3 -31.8 81.3 -25.9L81.3 -25.9Q81.3 -23.6 81.8 -20.6L81.8 -20.6Q82.9 -15 85.3 -12.3Q87.8 -9.6 91.4 -9.6L91.4 -9.6Q94.9 -9.6 97.6 -11.5Q100.2 -13.4 101.2 -17L101.2 -17Q101.7 -19.2 103.8 -20.4Q105.9 -21.5 108.7 -21.5L108.7 -21.5Q112.2 -21.5 114.7 -19.8Q117.3 -18.2 117.3 -15.3L117.3 -15.3Q117.3 -12.9 115.4 -10.2L115.4 -10.2Q109 -0.9 93 0.4L93 0.4M171.2 -4.4Q171.2 -2.8 170.5 -1.7Q169.8 -0.5 168.5 -0.2L168.5 -0.2Q165.6 0.4 163.2 0.4L163.2 0.4Q160 0.4 156.8 -0.6L156.8 -0.6Q153.8 -1.6 152.4 -3.7L152.4 -3.7Q152 -3 151.3 -2.6Q150.6 -2.1 149.2 -2.1L149.2 -2.1Q147.5 -2 143.1 -1.3L143.1 -1.3Q133.8 -0.3 131.9 -0.3L131.9 -0.3Q130.1 -0.3 129.2 -0.9Q128.4 -1.5 127.7 -3.2L127.7 -3.2Q126.3 -6.5 125 -15.8Q123.7 -25 123.7 -30.2L123.7 -30.2Q123.7 -32.7 124.7 -34.3Q125.7 -35.9 127.1 -36.4L127.1 -36.4Q129.2 -37.2 133.6 -37.6Q138 -38.1 141.6 -38.1L141.6 -38.1Q143.5 -38.1 143.9 -38L143.9 -38Q146.5 -37.7 147.5 -36.6Q148.6 -35.5 148.6 -33.6L148.6 -33.6Q148.6 -31 147.7 -29.5Q146.8 -28 145.5 -28.1L145.5 -28.1Q143.8 -28.3 143.1 -28.3L143.1 -28.3Q140.9 -28.3 139.7 -27.5L139.7 -27.5Q138.6 -27 138.2 -26.2Q137.7 -25.5 137.7 -24.4L137.7 -24.4Q137.7 -23.4 138.1 -20.2Q138.5 -17 138.7 -16L138.7 -16L139.2 -11.1Q141.4 -11.3 146.8 -12.1L146.8 -12.1Q148.4 -12.4 149.5 -12.5L149.5 -12.5Q150.3 -12.5 150.7 -12.4L150.7 -12.4Q150.2 -18.9 150 -23.6L150 -23.6Q149.7 -27 149.6 -30.6Q149.5 -34.3 149.4 -36L149.4 -36Q149.4 -36.7 150.1 -37.4L150.1 -37.4Q150.9 -38.3 153.2 -38.7Q155.5 -39 158 -39L158 -39Q162.6 -39 164.3 -38.2Q166.1 -37.3 166.1 -35.3L166.1 -35.3L166.1 -35.9Q165.9 -35.9 165.7 -30.5Q165.4 -25.1 165.4 -20.2L165.4 -20.2Q165.4 -12.4 166.1 -9.8L166.1 -9.8Q166.3 -9.2 167 -9.2L167 -9.2L167.9 -9.3Q168.1 -9.3 168.7 -9.2L168.7 -9.2Q169.8 -8.9 170.5 -7.5Q171.2 -6.1 171.2 -4.4L171.2 -4.4M194.3 -14.4Q194.3 -8.3 194 -2.5L194 -2.5Q193.8 -1.6 193.2 -1.1L193.2 -1.1Q192.8 -0.9 192.1 -0.7Q191.4 -0.5 191.1 -0.4L191.1 -0.4Q188.7 0.4 184.2 0.4L184.2 0.4Q180.3 0.4 178.4 -0.2L178.4 -0.2Q177.4 -0.5 176.7 -1.8Q176 -3.1 176.2 -5.1L176.2 -5.1Q176.5 -7.4 176.5 -28L176.5 -28Q176.5 -29.3 176.5 -31.8Q176.6 -34.3 176.6 -35.6L176.6 -35.6L176.9 -35.6L178.3 -35.6Q178.1 -34.6 178.1 -31.5L178.1 -31.5Q178.1 -25.7 178.8 -25.3L178.8 -25.3Q179.4 -25.5 179.5 -26.7Q179.6 -28 179.6 -28.1L179.6 -28.1L179.7 -28.2Q179.8 -28.8 179.7 -31.1Q179.6 -33.4 179.6 -34.7L179.6 -34.7Q179.3 -39.8 179.4 -41.2L179.4 -41.2L179.4 -41.3Q179.4 -41.4 179.2 -41.6Q179 -41.8 178.9 -41.9L178.9 -41.9Q178.8 -41.7 178.1 -41.4Q177.4 -41 177.2 -40.8L177.2 -40.8L176.9 -41Q177.1 -42.5 177.3 -45.3Q177.4 -48.1 177.4 -48.5L177.4 -48.5Q177.3 -50.1 178.2 -51.7Q179.1 -53.2 180.3 -53.5L180.3 -53.5Q183.3 -54 185.9 -54L185.9 -54Q191.4 -54 191.8 -52L191.8 -52Q192.8 -47.5 193.6 -36.3Q194.3 -25.1 194.3 -14.4L194.3 -14.4M201.1 -16.1Q201.1 -20.8 202.4 -27.3L202.4 -27.3Q202.4 -27.4 202.6 -27.5Q202.8 -27.6 203.1 -27.6L203.1 -27.6Q203.6 -27.6 203.5 -27.2L203.5 -27.2Q202.8 -23.9 202.6 -22Q202.4 -20.1 202.4 -17.8L202.4 -17.8Q202.4 -15.8 202.6 -13L202.6 -13Q202.6 -12.8 203.1 -12.8L203.1 -12.8Q203.5 -12.8 203.8 -12.9Q204.2 -13.1 204.2 -13.3L204.2 -13.3Q204.1 -14.3 204.1 -16.4L204.1 -16.4Q204.1 -21.8 205.3 -28L205.3 -28Q205 -28.5 204.4 -28.7Q203.8 -29 203.3 -28.9L203.3 -28.9Q206.2 -33.4 210.1 -35.7Q213.9 -38.1 219.5 -38.8L219.5 -38.8Q221.4 -39 223.2 -39L223.2 -39Q229.8 -39 233.9 -36.3L233.9 -36.3Q238.4 -33.1 239.5 -27.4L239.5 -27.4Q239.9 -25 239.9 -23.1L239.9 -23.1Q239.9 -21 239.5 -19.3L239.5 -19.3Q239.2 -18.2 238.3 -17.8Q237.5 -17.5 236.1 -17.4L236.1 -17.4Q232.7 -17.3 227.5 -16.9Q222.3 -16.5 220.1 -16.3L220.1 -16.3Q217.3 -16 217 -19.3L217 -19.3L217 -20.5Q217 -21.9 218 -22.3L218 -22.3Q218.3 -22.4 218.5 -22.5Q218.8 -22.6 218.9 -22.6L218.9 -22.6Q220.4 -22.8 223.2 -23Q225.9 -23.2 227.6 -23.2L227.6 -23.2Q227.7 -24.7 226.8 -26.6L226.8 -26.6Q225.8 -29 222.2 -28.8L222.2 -28.8Q220 -28.8 218.5 -27.7Q217 -26.6 216.1 -24.3L216.1 -24.3Q215.5 -22.9 215.3 -20.7Q215.1 -18.6 215.2 -15.6L215.2 -15.6Q215.3 -12.5 217.2 -11Q219 -9.4 221.5 -9.6L221.5 -9.6Q224.4 -9.7 225.7 -10Q227 -10.3 227.5 -11Q228 -11.6 228 -13.1L228 -13.1Q228 -14 229.6 -14.7Q231.3 -15.3 233.4 -15.3L233.4 -15.3Q236.1 -15.3 237.9 -14.1Q239.6 -12.9 239.4 -10.3L239.4 -10.3Q238.9 -5 234.2 -2.2Q229.4 0.6 223.2 0.9L223.2 0.9Q222.2 1 220.4 1L220.4 1Q211.1 1 206.1 -3.1L206.1 -3.1Q204.4 -4.4 203.1 -6.9Q201.9 -9.3 201.4 -11.9L201.4 -11.9Q201.1 -13.9 201.1 -16.1L201.1 -16.1M293.6 -24.8Q293.6 -19.5 292.7 -13.5Q291.7 -7.5 290.7 -3.5L290.7 -3.5Q290.4 -2.6 289.8 -1.7Q289.2 -0.9 288.5 -0.6L288.5 -0.6Q287 0 285 0L285 0Q283.2 0 280.9 -0.5L280.9 -0.5Q279.2 -0.9 278.4 -1.6Q277.6 -2.2 277.2 -4L277.2 -4Q276.7 -6 276.7 -8.3L276.7 -8.3Q276.7 -9.9 277.3 -14.9L277.3 -14.9Q277.9 -21 278 -24.1L278 -24.1Q278.1 -25.9 277.8 -26.7Q277.4 -27.5 275.9 -27.5L275.9 -27.5Q273.8 -27.5 270.6 -27.2Q267.4 -26.8 264.9 -26.3L264.9 -26.3L264.6 -26.3Q263.7 -26.3 263.1 -27.3L263.1 -27.3Q264.5 -16.1 264.5 -8.2L264.5 -8.2Q264.5 -5 264.3 -3.3L264.3 -3.3Q264.3 -3 264 -2.6Q263.8 -2.1 263.6 -1.9L263.6 -1.9Q263.2 -1.6 262.6 -1.5Q261.9 -1.3 261.5 -1.1L261.5 -1.1Q260.1 -0.4 257.6 0Q255 0.4 252.8 0.4L252.8 0.4Q251.3 0.4 250.1 0.2L250.1 0.2Q249.1 0 248.4 -1.2Q247.6 -2.3 247.6 -4.3L247.6 -4.3Q247.6 -5.5 247.4 -7.9L247.4 -7.9Q247.3 -10.3 247.3 -11.6L247.3 -11.6L247.2 -13.4Q246.8 -18.9 246.9 -19.1L246.9 -19.1L247 -19.1Q247.5 -19.1 247.9 -19.2Q248.4 -19.3 248.5 -19.3L248.5 -19.3Q248.4 -18 248.7 -13.7Q249.1 -9.4 249.8 -9L249.8 -9Q250.3 -9.3 250.3 -10.5Q250.3 -11.7 250.3 -11.9L250.3 -11.9L250.5 -12Q250.5 -13.2 249.8 -18L249.8 -18Q249.7 -19.4 249.4 -21.8Q249.1 -24.3 249.2 -24.9L249.2 -24.9Q249.2 -25.1 248.6 -25.6L248.6 -25.6Q248.4 -25.3 247.8 -25Q247.2 -24.6 247 -24.4L247 -24.4Q246.9 -24.5 246.8 -24.5Q246.7 -24.5 246.7 -24.6L246.7 -24.6Q246.9 -26.8 247 -29.1Q247.1 -31.5 247.1 -32.5L247.1 -32.5Q247 -32.7 247 -33.2L247 -33.2Q247 -34.7 247.8 -36.1Q248.6 -37.4 249.6 -37.7L249.6 -37.7Q250.9 -38.1 253 -38.5Q255.2 -38.8 257 -38.8L257 -38.8Q260.9 -38.8 261.2 -37.3L261.2 -37.3Q261.1 -37.5 261.6 -35.8L261.6 -35.8Q262.1 -36.8 262.8 -37.1L262.8 -37.1Q265.4 -38 269.4 -38.6Q273.4 -39.1 277.4 -39.1L277.4 -39.1Q282.5 -39.1 286.3 -38.1Q290.2 -37.1 291.6 -34.9L291.6 -34.9Q293.6 -32 293.6 -24.8L293.6 -24.8M340.4 -0.5Q338.7 0 336.3 0L336.3 0Q332.4 0 329.8 -0.9L329.8 -0.9Q329.4 -1.1 328.7 -1.2Q328.1 -1.3 327.8 -1.6L327.8 -1.6Q327.5 -1.8 327.2 -2.1L327.2 -2.1Q326.2 -1.6 324.7 -1.6L324.7 -1.6L321.5 -1.3Q311.1 -0.3 308.2 -0.3L308.2 -0.3Q306.4 -0.3 305.5 -0.9Q304.7 -1.5 304 -3.2L304 -3.2Q302.6 -6.5 301.3 -15.8Q300 -25 300 -30.2L300 -30.2Q300 -32.7 301 -34.3Q302 -35.9 303.4 -36.4L303.4 -36.4Q305.5 -37.2 309.9 -37.6Q314.2 -38.1 317.9 -38.1L317.9 -38.1Q319.8 -38.1 320.2 -38L320.2 -38Q322.8 -37.7 323.8 -36.6Q324.9 -35.5 324.9 -33.6L324.9 -33.6Q324.9 -31 324 -29.5Q323.1 -28 321.8 -28.1L321.8 -28.1Q320.1 -28.3 319.4 -28.3L319.4 -28.3Q317.2 -28.3 316 -27.5L316 -27.5Q314.9 -27 314.5 -26.2Q314 -25.5 314 -24.4L314 -24.4Q314 -23.4 314.4 -20.9Q314.7 -18.3 314.8 -17.2L314.8 -17.2Q315.4 -13.5 315.5 -12L315.5 -12Q318.9 -12.2 323.5 -12.7L323.5 -12.7L325 -12.9Q325.7 -12.9 326 -12.8L326 -12.8Q325.9 -19 325.9 -23.1L325.9 -23.1Q325.9 -32 326.2 -39.9Q326.5 -47.9 327.1 -50.9L327.1 -50.9Q327.5 -52.8 332 -52.8L332 -52.8Q334.8 -52.8 337.9 -52.2L337.9 -52.2Q339 -52 339.9 -50.4Q340.8 -48.9 340.7 -47.2L340.7 -47.2Q340.7 -46.2 341 -43.9Q341.4 -41.5 341.7 -39.3L341.7 -39.3Q341.7 -39.3 341.5 -39.3Q341.4 -39.3 341.4 -39.2L341.4 -39.2Q341.2 -39.3 340.6 -39.7Q339.9 -40 339.7 -40.2L339.7 -40.2Q339.2 -39.8 339.2 -39.5L339.2 -39.5Q339.2 -39.1 339.2 -37.8L339.2 -37.8Q339.2 -36.4 339.1 -32.5L339.1 -32.5Q339 -27.4 339 -26.6L339 -26.6L339.2 -26.5Q339.2 -26.3 339.3 -25.1Q339.4 -23.9 339.9 -23.6L339.9 -23.6Q340.6 -23.9 340.6 -29.3L340.6 -29.3Q340.6 -32.2 340.4 -33.9L340.4 -33.9L340.5 -33.9Q340.8 -33.9 341.3 -33.9Q341.8 -33.8 341.9 -33.9L341.9 -33.9Q341.9 -33.8 342.1 -31.4L342.1 -31.4Q342.1 -28.2 342.2 -26.3L342.2 -26.3Q342.2 -26.5 342.4 -18.8L342.4 -18.8Q342.4 -10.1 342.5 -5.4L342.5 -5.4Q342.6 -3.3 341.9 -2Q341.3 -0.7 340.4 -0.5L340.4 -0.5M397.1 -4.4Q397.1 -2.8 396.4 -1.7Q395.8 -0.5 394.4 -0.2L394.4 -0.2Q391.6 0.4 389.1 0.4L389.1 0.4Q385.9 0.4 382.8 -0.6L382.8 -0.6Q379.7 -1.6 378.3 -3.7L378.3 -3.7Q377.9 -3 377.2 -2.6Q376.5 -2.1 375.1 -2.1L375.1 -2.1Q373.5 -2 369 -1.3L369 -1.3Q359.7 -0.3 357.8 -0.3L357.8 -0.3Q356 -0.3 355.1 -0.9Q354.3 -1.5 353.6 -3.2L353.6 -3.2Q352.2 -6.5 350.9 -15.8Q349.6 -25 349.6 -30.2L349.6 -30.2Q349.6 -32.7 350.6 -34.3Q351.6 -35.9 353 -36.4L353 -36.4Q355.1 -37.2 359.5 -37.6Q363.9 -38.1 367.6 -38.1L367.6 -38.1Q369.4 -38.1 369.8 -38L369.8 -38Q372.4 -37.7 373.5 -36.6Q374.5 -35.5 374.5 -33.6L374.5 -33.6Q374.5 -31 373.6 -29.5Q372.8 -28 371.4 -28.1L371.4 -28.1Q369.7 -28.3 369.1 -28.3L369.1 -28.3Q366.9 -28.3 365.6 -27.5L365.6 -27.5Q364.5 -27 364.1 -26.2Q363.7 -25.5 363.7 -24.4L363.7 -24.4Q363.7 -23.4 364.1 -20.2Q364.4 -17 364.6 -16L364.6 -16L365.2 -11.1Q367.4 -11.3 372.8 -12.1L372.8 -12.1Q374.3 -12.4 375.4 -12.5L375.4 -12.5Q376.2 -12.5 376.6 -12.4L376.6 -12.4Q376.1 -18.9 375.9 -23.6L375.9 -23.6Q375.7 -27 375.5 -30.6Q375.4 -34.3 375.3 -36L375.3 -36Q375.3 -36.7 376 -37.4L376 -37.4Q376.9 -38.3 379.1 -38.7Q381.4 -39 383.9 -39L383.9 -39Q388.5 -39 390.3 -38.2Q392 -37.3 392 -35.3L392 -35.3L392 -35.9Q391.8 -35.9 391.6 -30.5Q391.4 -25.1 391.4 -20.2L391.4 -20.2Q391.4 -12.4 392.1 -9.8L392.1 -9.8Q392.2 -9.2 392.9 -9.2L392.9 -9.2L393.8 -9.3Q394 -9.3 394.6 -9.2L394.6 -9.2Q395.8 -8.9 396.4 -7.5Q397.1 -6.1 397.1 -4.4L397.1 -4.4M425.1 -23.4Q424.4 -23.1 423.8 -23.1L423.8 -23.1Q422.8 -23.1 422.2 -23.9L422.2 -23.9Q421.2 -25.2 420.4 -26.5L420.4 -26.5Q419.8 -27.5 419.8 -28.3L419.8 -28.3Q419.8 -29.5 421.6 -30.7L421.6 -30.7L427.1 -34.1L432.5 -37.3Q433.9 -38.2 434.9 -38.2L434.9 -38.2Q436.7 -38.2 438.4 -35.9L438.4 -35.9Q439.7 -34.1 439.7 -32.6L439.7 -32.6Q439.7 -31.7 439.3 -31.3L439.3 -31.3Q439.1 -31 438.8 -30.8Q438.5 -30.6 438.4 -30.5L438.4 -30.5Q436.6 -29.1 433.3 -27.3Q430 -25.5 428.3 -24.8L428.3 -24.8L425.1 -23.4M418.9 -13.1Q418.9 -6 418.2 -2.7L418.2 -2.7Q418 -1.8 417.3 -1.3L417.3 -1.3Q417 -1.1 416.3 -1Q415.6 -0.8 415.2 -0.6L415.2 -0.6Q412.7 0.3 408.6 0.3L408.6 0.3Q406 0.3 404.3 -0.2L404.3 -0.2Q403.4 -0.5 402.6 -1.8Q401.9 -3.1 402.1 -5.1L402.1 -5.1Q402.3 -6.3 402.3 -8.9L402.3 -8.9L402.4 -12.2Q402.4 -13.5 402.5 -16Q402.5 -18.5 402.6 -19.7L402.6 -19.7L402.8 -19.7L404.2 -19.8Q404.1 -18.8 404.1 -15.6L404.1 -15.6Q404.1 -9.9 404.7 -9.4L404.7 -9.4Q405.3 -9.7 405.4 -10.9Q405.5 -12.1 405.5 -12.3L405.5 -12.3L405.6 -12.4Q405.7 -13 405.6 -15.3Q405.5 -17.6 405.5 -18.9L405.5 -18.9Q405.2 -24 405.3 -25.3L405.3 -25.3L405.3 -25.4Q405.3 -25.6 405.1 -25.8Q404.9 -26 404.8 -26.1L404.8 -26.1Q404.6 -25.9 404 -25.5Q403.3 -25.1 403.1 -25L403.1 -25L402.8 -25.2Q403.1 -26.7 403.2 -29.5Q403.4 -32.3 403.3 -32.7L403.3 -32.7Q403.2 -34.3 404.1 -35.8Q405.1 -37.3 406.2 -37.6L406.2 -37.6Q409.2 -38.3 412.1 -38.3L412.1 -38.3Q414.1 -38.3 415.6 -37.8Q417 -37.3 417.2 -36.4L417.2 -36.4Q417.9 -32.5 418.4 -25.8Q418.9 -19.2 418.9 -13.1L418.9 -13.1z" style="stroke-width: 0;" fill="#000000" id="masknamepathdata" stroke="#000000" paint-order="stroke" transform="matrix(1,0,0,1,0,-8)"/><path d="M113.59999999999998 29.599999999999998L113.59999999999998 31.099999999999998L101.19999999999999 31.099999999999998L101.19999999999999 29.599999999999998L105.89999999999998 29.599999999999998L105.89999999999998 13.999999999999996L107.39999999999998 14.099999999999998L107.39999999999998 19.699999999999996L112.59999999999998 19.699999999999996L112.59999999999998 21.099999999999998L107.39999999999998 21.099999999999998L107.39999999999998 29.599999999999998L113.59999999999998 29.599999999999998M100.19999999999999 19.299999999999997Q99.89999999999998 18.799999999999997 99.59999999999998 18.299999999999997Q99.19999999999999 17.699999999999996 98.79999999999998 17.099999999999998Q98.29999999999998 16.599999999999998 97.89999999999998 16.099999999999998Q97.49999999999999 15.599999999999998 97.19999999999999 15.299999999999997L97.19999999999999 15.299999999999997L98.29999999999998 14.299999999999997Q98.59999999999998 14.599999999999998 98.99999999999999 15.099999999999998Q99.39999999999998 15.599999999999998 99.89999999999998 16.199999999999996Q100.29999999999998 16.699999999999996 100.69999999999999 17.199999999999996Q100.99999999999999 17.699999999999996 101.29999999999998 18.099999999999998L101.29999999999998 18.099999999999998L100.19999999999999 19.299999999999997M102.79999999999998 27.9Q102.69999999999999 27.999999999999996 102.19999999999999 28.4Q101.79999999999998 28.7 101.39999999999998 29.099999999999998Q100.89999999999998 29.499999999999996 100.39999999999998 29.9Q99.99999999999999 30.299999999999997 99.79999999999998 30.499999999999996L99.79999999999998 30.499999999999996Q99.49999999999999 30.7 99.29999999999998 30.999999999999996Q98.99999999999999 31.299999999999997 98.69999999999999 31.499999999999996L98.69999999999999 31.499999999999996L97.79999999999998 30.4Q98.19999999999999 30.099999999999998 98.29999999999998 29.9Q98.39999999999998 29.599999999999998 98.39999999999998 29.2L98.39999999999998 29.2L98.39999999999998 22L95.69999999999999 22L95.69999999999999 20.599999999999998L99.89999999999998 20.599999999999998L99.89999999999998 28.7Q99.99999999999999 28.599999999999998 100.39999999999998 28.299999999999997Q100.69999999999999 27.9 101.09999999999998 27.599999999999998Q101.49999999999999 27.2 101.79999999999998 26.9Q102.09999999999998 26.599999999999998 102.19999999999999 26.499999999999996L102.19999999999999 26.499999999999996L102.79999999999998 27.9M133.09999999999997 29.599999999999998L133.09999999999997 31.099999999999998L116.09999999999998 31.099999999999998L116.09999999999998 29.599999999999998L123.89999999999998 29.599999999999998L123.89999999999998 24.9L117.79999999999998 24.9L117.79999999999998 23.5L123.89999999999998 23.5L123.89999999999998 19.4L119.09999999999998 19.4Q118.59999999999998 20.4 118.09999999999998 21.4Q117.49999999999999 22.299999999999997 116.89999999999998 23.299999999999997L116.89999999999998 23.299999999999997L115.59999999999998 22.299999999999997Q116.79999999999998 20.599999999999998 117.79999999999998 18.799999999999997Q118.69999999999999 17 119.29999999999998 14.799999999999997L119.29999999999998 14.799999999999997L120.69999999999999 15.199999999999998Q120.49999999999999 15.899999999999999 120.29999999999998 16.599999999999998Q119.99999999999999 17.299999999999997 119.79999999999998 17.9L119.79999999999998 17.9L123.89999999999998 17.9L123.89999999999998 13.999999999999996L125.49999999999999 14.099999999999998L125.49999999999999 17.9L132.2 17.9L132.2 19.4L125.49999999999999 19.4L125.49999999999999 23.5L131.5 23.5L131.5 24.9L125.49999999999999 24.9L125.49999999999999 29.599999999999998L133.09999999999997 29.599999999999998M139.59999999999997 18.799999999999997Q139.2 18.4 138.7 18Q138.29999999999998 17.599999999999998 137.79999999999998 17.199999999999996Q137.2 16.799999999999997 136.79999999999998 16.4Q136.29999999999998 16.099999999999998 135.89999999999998 15.899999999999999L135.89999999999998 15.899999999999999L136.7 14.699999999999998Q137.09999999999997 14.899999999999999 137.59999999999997 15.199999999999998Q138.09999999999997 15.599999999999998 138.59999999999997 15.999999999999998Q139.09999999999997 16.299999999999997 139.59999999999997 16.699999999999996Q140.09999999999997 17.099999999999998 140.39999999999998 17.4L140.39999999999998 17.4L139.59999999999997 18.799999999999997M147.09999999999997 21.5L147.09999999999997 24.5L151.2 24.5L151.2 32.199999999999996L149.7 32.199999999999996L149.7 31.099999999999998L143 31.099999999999998L143 32.199999999999996L141.5 32.199999999999996L141.5 24.5L145.5 24.5L145.5 21.5L140.39999999999998 21.5L140.39999999999998 20.099999999999998L145.5 20.099999999999998L145.5 17Q144.29999999999998 17.099999999999998 143.09999999999997 17.199999999999996Q142 17.199999999999996 141.09999999999997 17.299999999999997L141.09999999999997 17.299999999999997L140.79999999999998 15.899999999999999Q142 15.799999999999997 143.39999999999998 15.699999999999998Q144.79999999999998 15.599999999999998 146.29999999999998 15.499999999999998Q147.7 15.399999999999999 149.09999999999997 15.199999999999998Q150.39999999999998 14.999999999999998 151.39999999999998 14.899999999999999L151.39999999999998 14.899999999999999L151.7 16.299999999999997Q150.79999999999998 16.4 149.59999999999997 16.5Q148.39999999999998 16.699999999999996 147.09999999999997 16.799999999999997L147.09999999999997 16.799999999999997L147.09999999999997 20.099999999999998L152.89999999999998 20.099999999999998L152.89999999999998 21.5L147.09999999999997 21.5M135.79999999999998 19.199999999999996Q136.2 19.5 136.7 19.799999999999997Q137.29999999999998 20.199999999999996 137.79999999999998 20.599999999999998Q138.39999999999998 21 138.89999999999998 21.4Q139.39999999999998 21.799999999999997 139.7 22.099999999999998L139.7 22.099999999999998L138.79999999999998 23.599999999999998Q138.5 23.199999999999996 138 22.799999999999997Q137.5 22.299999999999997 136.89999999999998 21.9Q136.39999999999998 21.5 135.89999999999998 21.099999999999998Q135.29999999999998 20.699999999999996 135 20.4L135 20.4L135.79999999999998 19.199999999999996M138.89999999999998 24.9L139.7 25.199999999999996Q139.5 25.9 139.2 26.799999999999997Q138.89999999999998 27.7 138.59999999999997 28.599999999999998Q138.2 29.499999999999996 137.89999999999998 30.4Q137.5 31.299999999999997 137.2 31.799999999999997L137.2 31.799999999999997L135.79999999999998 31.299999999999997Q136.09999999999997 30.799999999999997 136.39999999999998 29.9Q136.79999999999998 28.999999999999996 137.2 28.099999999999998Q137.5 27.2 137.79999999999998 26.299999999999997Q138.09999999999997 25.299999999999997 138.29999999999998 24.699999999999996L138.29999999999998 24.699999999999996L138.89999999999998 24.9M149.7 25.9L143 25.9L143 29.599999999999998L149.7 29.599999999999998L149.7 25.9M172.29999999999998 31.599999999999998Q170.39999999999998 31.499999999999996 169 31.299999999999997Q167.5 31.2 166.29999999999998 30.9Q165.09999999999997 30.7 164.09999999999997 30.4Q163.2 30.099999999999998 162.29999999999998 29.7L162.29999999999998 29.7Q161.29999999999998 30.499999999999996 159.59999999999997 31.099999999999998Q157.89999999999998 31.7 155.39999999999998 32.3L155.39999999999998 32.3L154.79999999999998 30.999999999999996Q157 30.499999999999996 158.5 29.999999999999996Q160 29.499999999999996 160.89999999999998 28.9L160.89999999999998 28.9Q160.2 28.4 159.39999999999998 27.7Q158.7 27.099999999999998 157.79999999999998 26.2L157.79999999999998 26.2L158.59999999999997 25.5L157.09999999999997 25.5L157.09999999999997 18.099999999999998L163 18.099999999999998L163 16.4L155.59999999999997 16.4L155.59999999999997 14.999999999999998L171.89999999999998 14.999999999999998L171.89999999999998 16.4L164.59999999999997 16.4L164.59999999999997 18.099999999999998L170.39999999999998 18.099999999999998L170.39999999999998 25.5L164.5 25.5Q164.39999999999998 26.499999999999996 164.09999999999997 27.299999999999997Q163.79999999999998 27.999999999999996 163.39999999999998 28.7L163.39999999999998 28.7Q164.2 28.999999999999996 165.09999999999997 29.2Q166 29.499999999999996 167.2 29.7Q168.29999999999998 29.9 169.59999999999997 29.999999999999996Q171 30.099999999999998 172.59999999999997 30.099999999999998L172.59999999999997 30.099999999999998L172.29999999999998 31.599999999999998M158.59999999999997 19.4L158.59999999999997 21.199999999999996L163 21.199999999999996L163 19.4L158.59999999999997 19.4M164.59999999999997 19.4L164.59999999999997 21.199999999999996L169 21.199999999999996L169 19.4L164.59999999999997 19.4M158.59999999999997 24.199999999999996L163 24.199999999999996L163 23.9L163 22.4L158.59999999999997 22.4L158.59999999999997 24.199999999999996M169 24.199999999999996L169 22.4L164.59999999999997 22.4L164.59999999999997 23.9L164.59999999999997 24.199999999999996L169 24.199999999999996M159 25.5Q159.7 26.299999999999997 160.39999999999998 26.9Q161.2 27.499999999999996 162 27.999999999999996L162 27.999999999999996Q162.39999999999998 27.499999999999996 162.59999999999997 26.9Q162.89999999999998 26.299999999999997 163 25.5L163 25.5L159 25.5M177.79999999999998 16.9Q177.29999999999998 17.699999999999996 176.7 18.4Q176.2 19.099999999999998 175.7 19.699999999999996L175.7 19.699999999999996L174.5 18.799999999999997Q175 18.299999999999997 175.59999999999997 17.599999999999998Q176.09999999999997 17 176.5 16.299999999999997Q177 15.599999999999998 177.39999999999998 14.899999999999999Q177.7 14.299999999999997 178 13.7L178 13.7L179.5 13.899999999999999Q179.29999999999998 14.299999999999997 179.09999999999997 14.699999999999998Q178.79999999999998 15.199999999999998 178.59999999999997 15.599999999999998L178.59999999999997 15.599999999999998L183.5 15.599999999999998L183.5 16.9L180.2 16.9L181.09999999999997 18.699999999999996L180 19.299999999999997Q179.79999999999998 18.799999999999997 179.39999999999998 18.099999999999998Q179.09999999999997 17.4 178.79999999999998 16.9L178.79999999999998 16.9L177.79999999999998 16.9M192.09999999999997 15.599999999999998L192.09999999999997 16.9L188.39999999999998 16.9Q188.59999999999997 17.4 188.89999999999998 17.799999999999997Q189.09999999999997 18.299999999999997 189.29999999999998 18.599999999999998L189.29999999999998 18.599999999999998L188.09999999999997 19.199999999999996Q187.89999999999998 18.699999999999996 187.59999999999997 18.099999999999998Q187.29999999999998 17.4 187 16.9L187 16.9L185.39999999999998 16.9Q185 17.5 184.7 18.099999999999998Q184.29999999999998 18.699999999999996 183.89999999999998 19.199999999999996L183.89999999999998 19.199999999999996L182.7 18.5Q183.5 17.4 184.2 16.199999999999996Q184.89999999999998 14.899999999999999 185.39999999999998 13.7L185.39999999999998 13.7L186.89999999999998 13.899999999999999Q186.7 14.299999999999997 186.5 14.799999999999997Q186.29999999999998 15.199999999999998 186.09999999999997 15.599999999999998L186.09999999999997 15.599999999999998L192.09999999999997 15.599999999999998M177.5 18.5Q177.79999999999998 18.699999999999996 178.09999999999997 19Q178.39999999999998 19.299999999999997 178.7 19.599999999999998Q179.09999999999997 20 179.39999999999998 20.299999999999997Q179.7 20.599999999999998 179.89999999999998 20.9L179.89999999999998 20.9L178.89999999999998 22Q178.7 21.699999999999996 178.39999999999998 21.299999999999997Q178.09999999999997 21 177.79999999999998 20.599999999999998Q177.5 20.299999999999997 177.2 20Q176.89999999999998 19.699999999999996 176.59999999999997 19.5L176.59999999999997 19.5L177.5 18.5M180.59999999999997 19.5L190.79999999999998 19.5L190.79999999999998 29.499999999999996Q190.79999999999998 30.2 190.7 30.599999999999998Q190.59999999999997 31.099999999999998 190.29999999999998 31.299999999999997Q190 31.599999999999998 189.39999999999998 31.7Q188.89999999999998 31.799999999999997 188 31.9L188 31.9L187.09999999999997 31.999999999999996L186.59999999999997 30.599999999999998L187.79999999999998 30.499999999999996Q188.39999999999998 30.4 188.7 30.4Q189 30.299999999999997 189.09999999999997 30.2Q189.29999999999998 29.999999999999996 189.29999999999998 29.799999999999997Q189.29999999999998 29.499999999999996 189.29999999999998 29.099999999999998L189.29999999999998 29.099999999999998L189.29999999999998 20.799999999999997L180.59999999999997 20.799999999999997L180.59999999999997 19.5M175.89999999999998 21.5L177.39999999999998 21.599999999999998L177.39999999999998 31.9L175.89999999999998 31.9L175.89999999999998 21.5M186.89999999999998 29.7L179.79999999999998 29.7L179.79999999999998 22.599999999999998L186.89999999999998 22.599999999999998L186.89999999999998 29.7M181.09999999999997 23.799999999999997L181.09999999999997 25.5L185.59999999999997 25.5L185.59999999999997 23.799999999999997L181.09999999999997 23.799999999999997M185.59999999999997 28.499999999999996L185.59999999999997 26.799999999999997L181.09999999999997 26.799999999999997L181.09999999999997 28.499999999999996L185.59999999999997 28.499999999999996M211.59999999999997 28.7L203.79999999999998 28.7L203.79999999999998 32.3L202.29999999999998 32.3L202.29999999999998 28.7L194.39999999999998 28.7L194.39999999999998 27.299999999999997L202.29999999999998 27.299999999999997L202.29999999999998 25.099999999999998L196.5 25.099999999999998L196.5 16.699999999999996L199.7 16.699999999999996Q199.39999999999998 16.099999999999998 199.09999999999997 15.499999999999998Q198.7 14.899999999999999 198.29999999999998 14.399999999999999L198.29999999999998 14.399999999999999L199.5 13.799999999999997Q199.7 13.999999999999996 200 14.299999999999997Q200.2 14.699999999999998 200.39999999999998 14.999999999999998Q200.7 15.299999999999997 200.89999999999998 15.699999999999998Q201.09999999999997 15.999999999999998 201.2 16.299999999999997L201.2 16.299999999999997L200.59999999999997 16.699999999999996L204.5 16.699999999999996Q204.79999999999998 16.4 205.09999999999997 15.999999999999998Q205.29999999999998 15.599999999999998 205.59999999999997 15.199999999999998Q205.79999999999998 14.799999999999997 206.09999999999997 14.399999999999999Q206.29999999999998 13.999999999999996 206.39999999999998 13.7L206.39999999999998 13.7L207.79999999999998 14.299999999999997Q207.5 14.799999999999997 207.09999999999997 15.399999999999999Q206.7 16.099999999999998 206.29999999999998 16.699999999999996L206.29999999999998 16.699999999999996L209.59999999999997 16.699999999999996L209.59999999999997 25.099999999999998L203.79999999999998 25.099999999999998L203.79999999999998 27.299999999999997L211.59999999999997 27.299999999999997L211.59999999999997 28.7M198 18L198 20.199999999999996L202.29999999999998 20.199999999999996L202.29999999999998 18L198 18M208.09999999999997 18L203.79999999999998 18L203.79999999999998 20.199999999999996L208.09999999999997 20.199999999999996L208.09999999999997 18M202.29999999999998 23.699999999999996L202.29999999999998 21.5L198 21.5L198 23.699999999999996L202.29999999999998 23.699999999999996M208.09999999999997 23.699999999999996L208.09999999999997 21.5L203.79999999999998 21.5L203.79999999999998 23.699999999999996L208.09999999999997 23.699999999999996M215.59999999999997 32.8Q216 32.199999999999996 216.39999999999998 31.499999999999996Q216.7 30.799999999999997 217 30.099999999999998Q217.2 29.4 217.29999999999998 28.799999999999997Q217.5 28.099999999999998 217.5 27.599999999999998L217.5 27.599999999999998L219.09999999999997 27.599999999999998Q219.09999999999997 28.2 218.89999999999998 28.9Q218.7 29.7 218.39999999999998 30.4Q218.09999999999997 31.099999999999998 217.79999999999998 31.7Q217.39999999999998 32.3 217 32.8L217 32.8L215.59999999999997 32.8M251.39999999999998 29.599999999999998L251.39999999999998 31.099999999999998L238.89999999999998 31.099999999999998L238.89999999999998 29.599999999999998L243.6 29.599999999999998L243.6 13.999999999999996L245.1 14.099999999999998L245.1 19.699999999999996L250.39999999999998 19.699999999999996L250.39999999999998 21.099999999999998L245.1 21.099999999999998L245.1 29.599999999999998L251.39999999999998 29.599999999999998M237.89999999999998 19.299999999999997Q237.7 18.799999999999997 237.29999999999998 18.299999999999997Q236.89999999999998 17.699999999999996 236.49999999999997 17.099999999999998Q236.1 16.599999999999998 235.7 16.099999999999998Q235.29999999999998 15.599999999999998 234.99999999999997 15.299999999999997L234.99999999999997 15.299999999999997L235.99999999999997 14.299999999999997Q236.39999999999998 14.599999999999998 236.79999999999998 15.099999999999998Q237.2 15.599999999999998 237.6 16.199999999999996Q237.99999999999997 16.699999999999996 238.39999999999998 17.199999999999996Q238.79999999999998 17.699999999999996 238.99999999999997 18.099999999999998L238.99999999999997 18.099999999999998L237.89999999999998 19.299999999999997M240.6 27.9Q240.39999999999998 27.999999999999996 239.99999999999997 28.4Q239.6 28.7 239.1 29.099999999999998Q238.6 29.499999999999996 238.2 29.9Q237.7 30.299999999999997 237.49999999999997 30.499999999999996L237.49999999999997 30.499999999999996Q237.29999999999998 30.7 236.99999999999997 30.999999999999996Q236.7 31.299999999999997 236.49999999999997 31.499999999999996L236.49999999999997 31.499999999999996L235.6 30.4Q235.89999999999998 30.099999999999998 235.99999999999997 29.9Q236.2 29.599999999999998 236.2 29.2L236.2 29.2L236.2 22L233.49999999999997 22L233.49999999999997 20.599999999999998L237.6 20.599999999999998L237.6 28.7Q237.79999999999998 28.599999999999998 238.1 28.299999999999997Q238.49999999999997 27.9 238.89999999999998 27.599999999999998Q239.29999999999998 27.2 239.6 26.9Q239.89999999999998 26.599999999999998 239.99999999999997 26.499999999999996L239.99999999999997 26.499999999999996L240.6 27.9M270.79999999999995 29.2L270.79999999999995 30.799999999999997L253.39999999999998 30.799999999999997L253.39999999999998 29.2L261.29999999999995 29.2L261.29999999999995 17.299999999999997L254.79999999999998 17.299999999999997L254.79999999999998 15.699999999999998L269.4 15.699999999999998L269.4 17.299999999999997L263 17.299999999999997L263 29.2L270.79999999999995 29.2M284.1 18.5L284.1 21.599999999999998L289.2 21.599999999999998L289.2 23.099999999999998L284.1 23.099999999999998L284.1 26.299999999999997L289.6 26.299999999999997L289.6 27.799999999999997L284.1 27.799999999999997L284.1 32.099999999999994L282.5 32.099999999999994L282.5 18.5L281.6 18.5Q281.1 19.5 280.4 20.599999999999998Q279.6 21.699999999999996 278.6 23L278.6 23L277.5 21.9Q278.4 20.9 279.1 19.9Q279.7 18.9 280.2 18Q280.79999999999995 17 281.2 15.999999999999998Q281.6 15.099999999999998 281.9 14.099999999999998L281.9 14.099999999999998L283.29999999999995 14.599999999999998Q283.1 15.199999999999998 282.9 15.799999999999997Q282.7 16.299999999999997 282.4 17L282.4 17L290.29999999999995 17L290.29999999999995 18.5L284.1 18.5M278.6 14.999999999999998Q278.29999999999995 15.799999999999997 277.9 16.799999999999997Q277.5 17.699999999999996 276.9 18.799999999999997L276.9 18.799999999999997L276.9 32.099999999999994L275.4 32.099999999999994L275.4 21.5Q274.5 22.9 273.4 24.199999999999996L273.4 24.199999999999996L272.29999999999995 23.099999999999998Q273.29999999999995 22 274 20.9Q274.79999999999995 19.699999999999996 275.4 18.599999999999998Q276 17.5 276.4 16.4Q276.79999999999995 15.399999999999999 277.2 14.399999999999999L277.2 14.399999999999999L278.6 14.999999999999998M310 31.599999999999998Q308.2 31.499999999999996 306.7 31.299999999999997Q305.2 31.2 304 30.9Q302.79999999999995 30.7 301.9 30.4Q300.9 30.099999999999998 300.1 29.7L300.1 29.7Q299 30.499999999999996 297.4 31.099999999999998Q295.7 31.7 293.2 32.3L293.2 32.3L292.6 30.999999999999996Q294.79999999999995 30.499999999999996 296.29999999999995 29.999999999999996Q297.7 29.499999999999996 298.7 28.9L298.7 28.9Q297.9 28.4 297.2 27.7Q296.4 27.099999999999998 295.6 26.2L295.6 26.2L296.4 25.5L294.9 25.5L294.9 18.099999999999998L300.79999999999995 18.099999999999998L300.79999999999995 16.4L293.4 16.4L293.4 14.999999999999998L309.7 14.999999999999998L309.7 16.4L302.29999999999995 16.4L302.29999999999995 18.099999999999998L308.2 18.099999999999998L308.2 25.5L302.2 25.5Q302.1 26.499999999999996 301.9 27.299999999999997Q301.6 27.999999999999996 301.1 28.7L301.1 28.7Q301.9 28.999999999999996 302.9 29.2Q303.79999999999995 29.499999999999996 304.9 29.7Q306.1 29.9 307.4 29.999999999999996Q308.79999999999995 30.099999999999998 310.4 30.099999999999998L310.4 30.099999999999998L310 31.599999999999998M296.29999999999995 19.4L296.29999999999995 21.199999999999996L300.79999999999995 21.199999999999996L300.79999999999995 19.4L296.29999999999995 19.4M302.29999999999995 19.4L302.29999999999995 21.199999999999996L306.7 21.199999999999996L306.7 19.4L302.29999999999995 19.4M296.29999999999995 24.199999999999996L300.79999999999995 24.199999999999996L300.79999999999995 23.9L300.79999999999995 22.4L296.29999999999995 22.4L296.29999999999995 24.199999999999996M306.7 24.199999999999996L306.7 22.4L302.29999999999995 22.4L302.29999999999995 23.9L302.29999999999995 24.199999999999996L306.7 24.199999999999996M296.7 25.5Q297.5 26.299999999999997 298.2 26.9Q298.9 27.499999999999996 299.79999999999995 27.999999999999996L299.79999999999995 27.999999999999996Q300.2 27.499999999999996 300.4 26.9Q300.6 26.299999999999997 300.7 25.5L300.7 25.5L296.7 25.5M320.1 27.7Q319.6 27.799999999999997 318.9 27.9Q318.29999999999995 27.999999999999996 317.6 28.099999999999998L317.6 28.099999999999998L317.6 32.099999999999994L316.1 32.099999999999994L316.1 28.299999999999997Q315 28.499999999999996 314 28.599999999999998Q313 28.799999999999997 312.2 28.9L312.2 28.9L312 27.4Q312.79999999999995 27.299999999999997 313.9 27.2Q315 26.999999999999996 316.1 26.9L316.1 26.9L316.1 23.9L312.9 23.9L312.9 22.5Q313.2 21.699999999999996 313.6 20.5Q314 19.299999999999997 314.4 18.099999999999998L314.4 18.099999999999998L312.5 18.099999999999998L312.5 16.599999999999998L314.79999999999995 16.599999999999998Q315 15.899999999999999 315.2 15.199999999999998Q315.29999999999995 14.499999999999998 315.5 13.899999999999999L315.5 13.899999999999999L316.79999999999995 14.199999999999998Q316.7 14.799999999999997 316.6 15.399999999999999Q316.4 15.999999999999998 316.2 16.599999999999998L316.2 16.599999999999998L319.9 16.599999999999998L319.9 18.099999999999998L315.79999999999995 18.099999999999998Q315.5 19.299999999999997 315.1 20.5Q314.7 21.699999999999996 314.4 22.5L314.4 22.5L316.1 22.5L316.1 19L317.6 19.099999999999998L317.6 22.5L319.5 22.5L319.5 23.9L317.6 23.9L317.6 26.7Q318.29999999999995 26.599999999999998 318.9 26.499999999999996Q319.5 26.4 320 26.299999999999997L320 26.299999999999997L320.1 27.7M319.7 22.099999999999998Q321.79999999999995 21 323.5 19.699999999999996Q325.1 18.4 326.2 16.799999999999997L326.2 16.799999999999997L320.4 16.799999999999997L320.4 15.399999999999999L328.2 15.399999999999999L328.2 16.699999999999996Q327.7 17.5 327.1 18.199999999999996Q326.5 18.9 325.9 19.5L325.9 19.5Q326.4 19.799999999999997 327.1 20.199999999999996Q327.7 20.5 328.29999999999995 20.9Q328.79999999999995 21.199999999999996 329.4 21.599999999999998Q329.9 21.9 330.2 22.199999999999996L330.2 22.199999999999996L329.6 23.599999999999998Q329.2 23.299999999999997 328.7 22.9Q328.1 22.5 327.5 22Q326.79999999999995 21.599999999999998 326.1 21.199999999999996Q325.4 20.799999999999997 324.79999999999995 20.5L324.79999999999995 20.5Q323.9 21.299999999999997 322.79999999999995 22Q321.7 22.799999999999997 320.5 23.4L320.5 23.4L319.7 22.099999999999998M325.29999999999995 29.7L329.9 29.7L329.9 31.2L319.2 31.2L319.2 29.7L323.79999999999995 29.7L323.79999999999995 25.799999999999997L320.29999999999995 25.799999999999997L320.29999999999995 24.299999999999997L328.79999999999995 24.299999999999997L328.79999999999995 25.799999999999997L325.29999999999995 25.799999999999997L325.29999999999995 29.7M338.2 25.299999999999997Q338 25 337.79999999999995 24.699999999999996Q337.6 24.4 337.29999999999995 24Q337.1 23.699999999999996 336.79999999999995 23.299999999999997Q336.5 23 336.29999999999995 22.699999999999996L336.29999999999995 22.699999999999996L336.29999999999995 31.999999999999996L334.9 31.999999999999996L334.9 22.4Q334.4 23.599999999999998 333.79999999999995 24.799999999999997Q333.2 26 332.5 26.999999999999996L332.5 26.999999999999996L331.4 26.099999999999998Q331.79999999999995 25.4 332.29999999999995 24.599999999999998Q332.79999999999995 23.799999999999997 333.29999999999995 22.9Q333.7 22 334.1 21Q334.5 20.099999999999998 334.79999999999995 19.199999999999996L334.79999999999995 19.199999999999996L332.2 19.199999999999996L332.2 17.799999999999997L334.9 17.799999999999997L334.9 13.899999999999999L336.29999999999995 13.899999999999999L336.29999999999995 17.799999999999997L338.5 17.799999999999997L338.5 19.199999999999996L336.29999999999995 19.199999999999996L336.29999999999995 21.699999999999996L336.7 21.299999999999997Q337 21.5 337.29999999999995 21.9Q337.7 22.199999999999996 338 22.699999999999996Q338.4 23.099999999999998 338.7 23.5Q339 23.9 339.2 24.199999999999996L339.2 24.199999999999996L338.2 25.299999999999997M348.79999999999995 23.799999999999997Q348 22.699999999999996 347.29999999999995 21.599999999999998Q346.6 20.599999999999998 346 19.5Q345.4 18.4 345 17.099999999999998Q344.5 15.799999999999997 344.2 14.299999999999997L344.2 14.299999999999997L345.5 13.999999999999996Q346.2 16.799999999999997 347.29999999999995 18.9Q348.5 21 350.1 22.699999999999996L350.1 22.699999999999996L348.79999999999995 23.799999999999997M338.1 22Q339.4 20.4 340.2 18.599999999999998Q341.1 16.799999999999997 341.6 14.699999999999998L341.6 14.699999999999998L343 14.999999999999998Q342.29999999999995 17.299999999999997 341.4 19.299999999999997Q340.5 21.299999999999997 339.29999999999995 22.9L339.29999999999995 22.9L338.1 22M345.79999999999995 24.799999999999997Q346.2 25.4 346.6 26.099999999999998Q347 26.9 347.4 27.7Q347.79999999999995 28.599999999999998 348.2 29.499999999999996Q348.6 30.4 348.9 31.299999999999997L348.9 31.299999999999997L347.5 32.099999999999994Q347.2 31.2 346.9 30.299999999999997L346.9 30.299999999999997Q346.5 30.299999999999997 346 30.4Q345.4 30.4 344.7 30.499999999999996Q344.1 30.499999999999996 343.4 30.599999999999998Q342.6 30.7 342 30.7Q341.4 30.799999999999997 341 30.799999999999997Q340.5 30.9 340.4 30.9L340.4 30.9Q340 30.9 339.6 30.999999999999996Q339.2 30.999999999999996 338.9 31.099999999999998L338.9 31.099999999999998L338.5 29.7Q338.9 29.499999999999996 339 29.299999999999997Q339.2 29.2 339.4 28.9L339.4 28.9Q339.79999999999995 28.2 340.2 27.299999999999997Q340.7 26.299999999999997 341.1 25.299999999999997Q341.5 24.299999999999997 341.9 23.199999999999996Q342.4 22.099999999999998 342.7 21L342.7 21L344.1 21.4Q343.7 22.5 343.29999999999995 23.599999999999998Q342.9 24.699999999999996 342.5 25.799999999999997Q342 26.799999999999997 341.6 27.7Q341.2 28.599999999999998 340.79999999999995 29.4L340.79999999999995 29.4Q341.1 29.299999999999997 341.79999999999995 29.299999999999997Q342.5 29.2 343.29999999999995 29.2Q344.1 29.099999999999998 344.9 28.999999999999996Q345.79999999999995 28.9 346.29999999999995 28.9L346.29999999999995 28.9Q345.79999999999995 27.799999999999997 345.4 26.9Q344.9 26 344.5 25.299999999999997L344.5 25.299999999999997L345.79999999999995 24.799999999999997z" style="stroke-width: 0;" fill="#000000" id="masksloganpathdata" stroke="#000000" paint-order="stroke" transform="matrix(1,0,0,1,0,-8)"/></mask>
          </defs>
          
        </g>
        </svg>